<?xml version="1.0" encoding="UTF-8"?>
<svg version="1.1" xmlns="http://www.w3.org/2000/svg" width="285" height="288">
<path d="M0 0 C2.1875 0.875 2.1875 0.875 3.1875 2.875 C2.31025269 3.01204346 2.31025269 3.01204346 1.4152832 3.15185547 C-1.36614085 4.05471334 -2.49206851 5.29319798 -4.45703125 7.4453125 C-5.47313477 8.54359375 -5.47313477 8.54359375 -6.50976562 9.6640625 C-7.20779297 10.43492188 -7.90582031 11.20578125 -8.625 12 C-10.00544487 13.50358314 -11.38694626 15.00619702 -12.76953125 16.5078125 C-13.43936035 17.23774414 -14.10918945 17.96767578 -14.79931641 18.71972656 C-17.72479423 21.85168366 -20.75275705 24.87473369 -23.8125 27.875 C-22.8225 28.865 -22.8225 28.865 -21.8125 29.875 C-22.3075 30.37 -22.3075 30.37 -22.8125 30.875 C-22.1525 31.205 -21.4925 31.535 -20.8125 31.875 C-20.8125 33.525 -20.8125 35.175 -20.8125 36.875 C-21.8025 36.875 -22.7925 36.875 -23.8125 36.875 C-23.83585056 55.58118279 -23.8534898 74.28736263 -23.86431217 92.99355698 C-23.86947053 101.67897783 -23.87650451 110.36438964 -23.88793945 119.04980469 C-23.8979003 126.61917001 -23.90435678 134.18852878 -23.90658849 141.75790048 C-23.90789321 145.7665642 -23.91096403 149.77520917 -23.91823006 153.78386688 C-23.92501234 157.55617205 -23.92711244 161.32845073 -23.92560768 165.10076141 C-23.92588301 166.485882 -23.92787505 167.87100346 -23.93170547 169.25611877 C-23.93667709 171.1464677 -23.93488953 173.0368308 -23.93275452 174.92718506 C-23.93367631 175.9854034 -23.9345981 177.04362175 -23.93554783 178.13390732 C-23.76120699 182.01763603 -23.59911166 184.08838834 -20.8125 186.875 C-21.4725 187.535 -22.1325 188.195 -22.8125 188.875 C-24.4625 188.215 -26.1125 187.555 -27.8125 186.875 C-27.4825 185.885 -27.1525 184.895 -26.8125 183.875 C-27.4725 183.545 -28.1325 183.215 -28.8125 182.875 C-29.121875 182.235625 -29.43125 181.59625 -29.75 180.9375 C-30.76595922 178.55528507 -30.76595922 178.55528507 -33.8125 176.875 C-33.8125 175.885 -33.8125 174.895 -33.8125 173.875 C-34.4725 173.875 -35.1325 173.875 -35.8125 173.875 C-36.245625 173.235625 -36.67875 172.59625 -37.125 171.9375 C-39.22099852 169.37572404 -40.59549472 169.22278436 -43.8125 168.875 C-43.1525 167.885 -42.4925 166.895 -41.8125 165.875 C-43.4625 166.535 -45.1125 167.195 -46.8125 167.875 C-47.245625 167.25625 -47.67875 166.6375 -48.125 166 C-49.80990483 163.6552755 -49.80990483 163.6552755 -52.8125 161.875 C-53.98671678 160.73433227 -55.15703764 159.58918968 -56.30078125 158.41796875 C-57.41163665 157.28414994 -58.53608171 156.16360493 -59.66796875 155.05078125 C-63.72471789 151.05680579 -67.56545336 146.9556494 -71.26953125 142.6328125 C-72.53128383 141.19537286 -73.88009931 139.83477503 -75.25 138.5 C-76.8125 136.875 -76.8125 136.875 -76.8125 134.875 C-77.410625 134.58625 -78.00875 134.2975 -78.625 134 C-80.8125 132.875 -80.8125 132.875 -83.8125 130.875 C-83.8125 130.215 -83.8125 129.555 -83.8125 128.875 C-85.11943833 127.51578414 -86.46196454 126.19090635 -87.8125 124.875 C-90.80378298 121.5431254 -93.71777029 118.14245892 -96.64453125 114.75390625 C-99.19682126 111.81237811 -101.74471371 108.94278629 -104.5 106.1875 C-106.8125 103.875 -106.8125 103.875 -108.9375 101.125 C-110.68681597 98.62447545 -110.68681597 98.62447545 -113.8125 97.875 C-114.3075 98.865 -114.3075 98.865 -114.8125 99.875 C-115.1425 98.555 -115.4725 97.235 -115.8125 95.875 C-115.1525 95.875 -114.4925 95.875 -113.8125 95.875 C-116.45224923 92.46882953 -116.45224923 92.46882953 -119.4375 89.375 C-121.23239057 87.41693756 -121.9393368 85.36015681 -122.8125 82.875 C-123.4725 82.875 -124.1325 82.875 -124.8125 82.875 C-126.01279908 80.47440183 -125.92709743 78.98139351 -125.91015625 76.3046875 C-125.90693359 75.40878906 -125.90371094 74.51289063 -125.90039062 73.58984375 C-125.89201172 72.65269531 -125.88363281 71.71554688 -125.875 70.75 C-125.87048828 69.80511719 -125.86597656 68.86023438 -125.86132812 67.88671875 C-125.84952357 65.54941613 -125.83305759 63.21223939 -125.8125 60.875 C-126.4725 60.545 -127.1325 60.215 -127.8125 59.875 C-127.1525 59.875 -126.4925 59.875 -125.8125 59.875 C-125.8125 58.885 -125.8125 57.895 -125.8125 56.875 C-126.4725 56.545 -127.1325 56.215 -127.8125 55.875 C-127.1525 54.885 -126.4925 53.895 -125.8125 52.875 C-126.4725 52.545 -127.1325 52.215 -127.8125 51.875 C-127.4825 50.885 -127.1525 49.895 -126.8125 48.875 C-126.9775 48.194375 -127.1425 47.51375 -127.3125 46.8125 C-128.0456901 42.50500818 -127.86578598 38.12576127 -126.8125 33.875 C-125.8225 33.215 -124.8325 32.555 -123.8125 31.875 C-123.1525 33.525 -122.4925 35.175 -121.8125 36.875 C-121.1525 36.875 -120.4925 36.875 -119.8125 36.875 C-118.41924046 38.42740341 -117.09869872 40.04529985 -115.8125 41.6875 C-111.65243799 46.90956158 -107.26195698 51.80304945 -102.68359375 56.66015625 C-100.8125 58.875 -100.8125 58.875 -100.8125 60.875 C-100.1525 60.875 -99.4925 60.875 -98.8125 60.875 C-97.12109375 62.51953125 -97.12109375 62.51953125 -95.25 64.6875 C-94.62996094 65.39519531 -94.00992188 66.10289062 -93.37109375 66.83203125 C-91.8125 68.875 -91.8125 68.875 -90.8125 71.875 C-89.1625 71.875 -87.5125 71.875 -85.8125 71.875 C-85.77125 72.555625 -85.73 73.23625 -85.6875 73.9375 C-84.44697322 78.1021256 -81.87687909 80.85126254 -78.8125 83.875 C-77.8225 84.37 -77.8225 84.37 -76.8125 84.875 C-76.8125 85.865 -76.8125 86.855 -76.8125 87.875 C-76.1525 87.875 -75.4925 87.875 -74.8125 87.875 C-73.41015625 89.3359375 -73.41015625 89.3359375 -71.875 91.25 C-69.89263383 93.71401524 -68.50550345 95.07966437 -65.8125 96.875 C-65.12981862 98.20020503 -64.46391516 99.53414933 -63.8125 100.875 C-62.40377189 102.45051657 -62.40377189 102.45051657 -60.75 103.9375 C-57.58956936 106.97276507 -54.82300669 110.21647705 -52.06640625 113.62109375 C-51.26662354 114.60650146 -50.46684082 115.59190918 -49.64282227 116.60717773 C-49.03881592 117.35555908 -48.43480957 118.10394043 -47.8125 118.875 C-47.78935877 110.04344684 -47.7715758 101.21190406 -47.76068783 92.38032722 C-47.75546291 88.27974504 -47.74837232 84.17918355 -47.73706055 80.07861328 C-47.72621782 76.12345043 -47.72022021 72.16830752 -47.71762276 68.21313095 C-47.71577102 66.70201173 -47.71215518 65.19089363 -47.70676994 63.67978287 C-47.69954114 61.56791042 -47.69850984 59.45612105 -47.69897461 57.34423828 C-47.696754 56.14066681 -47.69453339 54.93709534 -47.69224548 53.697052 C-47.6178321 50.92372835 -47.6178321 50.92372835 -48.8125 48.875 C-48.1525 48.875 -47.4925 48.875 -46.8125 48.875 C-47.1425 47.885 -47.4725 46.895 -47.8125 45.875 C-50.8870356 46.6513932 -50.8870356 46.6513932 -52.8125 48.875 C-54.12371471 49.62348506 -55.46010558 50.32877483 -56.8125 51 C-57.864375 51.52980469 -57.864375 51.52980469 -58.9375 52.0703125 C-60.8125 52.875 -60.8125 52.875 -62.8125 52.875 C-62.8125 53.535 -62.8125 54.195 -62.8125 54.875 C-63.92625 55.32875 -65.04 55.7825 -66.1875 56.25 C-69.77449008 57.59965986 -69.77449008 57.59965986 -71.8125 59.875 C-73.6875 60.4375 -73.6875 60.4375 -75.8125 60.875 C-76.555 61.060625 -77.2975 61.24625 -78.0625 61.4375 C-78.64 61.581875 -79.2175 61.72625 -79.8125 61.875 C-79.30646008 59.70625748 -78.81266187 57.87532373 -77.8125 55.875 C-77.06871094 55.59269531 -76.32492188 55.31039062 -75.55859375 55.01953125 C-72.33510039 53.67602691 -70.41398013 51.9490611 -67.875 49.5625 C-62.27423954 44.37012833 -62.27423954 44.37012833 -59.375 42 C-56.89679885 40.02541478 -56.89679885 40.02541478 -55.1875 38.1875 C-53.8125 36.875 -53.8125 36.875 -52.1484375 36.10546875 C-48.86172693 34.37417472 -45.99741102 32.13262386 -43.0625 29.875 C-42.15951172 29.19824219 -42.15951172 29.19824219 -41.23828125 28.5078125 C-39.72343644 27.34677498 -38.26280179 26.11572061 -36.8125 24.875 C-36.8125 24.215 -36.8125 23.555 -36.8125 22.875 C-36.22315674 22.75801758 -35.63381348 22.64103516 -35.02661133 22.52050781 C-32.69493445 21.84072463 -31.31669519 20.99981276 -29.38671875 19.546875 C-28.75443359 19.07636719 -28.12214844 18.60585937 -27.47070312 18.12109375 C-26.49520508 17.38052734 -26.49520508 17.38052734 -25.5 16.625 C-24.21255344 15.66103901 -22.92479432 14.69749533 -21.63671875 13.734375 C-21.00556152 13.26193359 -20.3744043 12.78949219 -19.72412109 12.30273438 C-19.09328613 11.83158203 -18.46245117 11.36042969 -17.8125 10.875 C-17.1623291 10.38837891 -16.5121582 9.90175781 -15.84228516 9.40039062 C-11.04273184 5.875 -11.04273184 5.875 -8.8125 5.875 C-8.8125 5.215 -8.8125 4.555 -8.8125 3.875 C-3.8420003 -0.17075557 -3.8420003 -0.17075557 0 0 Z M-25.8125 28.875 C-24.8125 30.875 -24.8125 30.875 -24.8125 30.875 Z M-28.8125 32.875 C-29.8025 33.37 -29.8025 33.37 -30.8125 33.875 C-30.8125 34.535 -30.8125 35.195 -30.8125 35.875 C-29.4925 35.215 -28.1725 34.555 -26.8125 33.875 C-27.4725 33.545 -28.1325 33.215 -28.8125 32.875 Z M-23.8125 32.875 C-23.4825 33.865 -23.1525 34.855 -22.8125 35.875 C-22.4825 34.885 -22.1525 33.895 -21.8125 32.875 C-22.4725 32.875 -23.1325 32.875 -23.8125 32.875 Z M-59.8125 145.875 C-58.8125 147.875 -58.8125 147.875 -58.8125 147.875 Z M-58.8125 147.875 C-58.1525 148.535 -57.4925 149.195 -56.8125 149.875 C-56.8125 149.215 -56.8125 148.555 -56.8125 147.875 C-57.4725 147.875 -58.1325 147.875 -58.8125 147.875 Z M-53.8125 152.875 C-52.41917426 156.24220387 -50.8335714 157.8609524 -47.8125 159.875 C-49.20582574 156.50779613 -50.7914286 154.8890476 -53.8125 152.875 Z M-45.8125 162.875 C-45.4825 163.535 -45.1525 164.195 -44.8125 164.875 C-44.1525 164.875 -43.4925 164.875 -42.8125 164.875 C-42.8125 164.215 -42.8125 163.555 -42.8125 162.875 C-43.8025 162.875 -44.7925 162.875 -45.8125 162.875 Z " fill="#F5E7A0" transform="translate(271.8125,80.125)"/>
<path d="M0 0 C0.66 0.33 1.32 0.66 2 1 C4.00097518 1.12027472 6.0058621 1.17737258 8.01025391 1.20532227 C9.27141022 1.22526749 10.53256653 1.24521271 11.8319397 1.26576233 C13.21347937 1.28274665 14.59502034 1.29962546 15.9765625 1.31640625 C17.38618582 1.3369756 18.79580297 1.35797207 20.20541382 1.37937927 C23.91747035 1.43460195 27.62958257 1.48401031 31.34173584 1.53222656 C35.12891603 1.58244018 38.91601526 1.63812697 42.703125 1.69335938 C50.13534812 1.80094333 57.56763852 1.90238773 65 2 C64.67 2.99 64.34 3.98 64 5 C62.515 5.12375 62.515 5.12375 61 5.25 C57.11505217 5.78012526 54.1068631 7.27892234 50.69921875 9.16015625 C49 10 49 10 47 10 C47.16334839 10.71767548 47.32669678 11.43535095 47.49499512 12.17477417 C47.98832079 14.93466123 48.10657612 17.40449313 48.08007812 20.20361328 C48.07423706 21.23058319 48.068396 22.2575531 48.06237793 23.31564331 C48.0469696 24.98857956 48.0469696 24.98857956 48.03125 26.6953125 C47.98226011 37.33963582 48.0482061 47.9745068 48.21875 58.6171875 C48.22982788 59.3213102 48.24090576 60.02543289 48.25231934 60.75089264 C48.32041232 65.06439601 48.39138431 69.37784742 48.46356201 73.69128418 C48.56080113 79.51879049 48.65487844 85.34634721 48.74781799 91.17392349 C48.78005538 93.16828273 48.81376643 95.16261799 48.84753418 97.1569519 C48.88714066 99.59663547 48.9213609 102.03641412 48.94946289 104.47625732 C48.98387225 106.87547907 49.04125839 109.27445635 49.11889648 111.67266846 C49.14604736 112.83143494 49.17319824 113.99020142 49.20117188 115.18408203 C49.23400269 116.21324738 49.2668335 117.24241272 49.30065918 118.30276489 C48.94920432 121.45569167 48.21607828 122.59040548 46 124.8125 C45.01 125.534375 44.02 126.25625 43 127 C43.33 127.66 43.66 128.32 44 129 C43.175 129.45375 42.35 129.9075 41.5 130.375 C40.675 130.91125 39.85 131.4475 39 132 C39 132.66 39 133.32 39 134 C39.4125 133.54625 39.825 133.0925 40.25 132.625 C42.09381964 130.91288176 43.75780847 130.1190537 46 129 C47.36641062 128.10168649 48.71990956 127.18353952 50.0625 126.25 C54.3856138 123.315436 58.86924295 120.86765945 63.51953125 118.4921875 C66.13020765 116.92167036 68.0141519 115.30525024 70 113 C70 112.34 70 111.68 70 111 C71.65 111.66 73.3 112.32 75 113 C74.67 114.65 74.34 116.3 74 118 C73.34 117.67 72.68 117.34 72 117 C71.64333252 117.42667969 71.28666504 117.85335937 70.91918945 118.29296875 C65.54322653 124.58614604 59.74978891 130.43635628 53.90063477 136.28466797 C52.16849124 138.01903314 50.4445469 139.76129591 48.72070312 141.50390625 C47.62027978 142.60725787 46.51938584 143.71014039 45.41796875 144.8125 C44.90340622 145.33424805 44.38884369 145.85599609 43.85868835 146.39355469 C40.22886878 150 40.22886878 150 38 150 C38 150.66 38 151.32 38 152 C36.49609375 153.48046875 36.49609375 153.48046875 34.4375 155.1875 C31.6746132 157.53279758 29.03320243 159.90829405 26.5 162.5 C22.83736427 166.21179863 18.96103006 169.61118938 15 173 C13.88665092 173.95434796 12.77337563 174.908782 11.66015625 175.86328125 C9.82745673 177.43413126 7.99451545 179.00469532 6.16088867 180.57446289 C-1.59530632 187.09514964 -1.59530632 187.09514964 -9 194 C-10.0209375 194.2165625 -10.0209375 194.2165625 -11.0625 194.4375 C-11.701875 194.623125 -12.34125 194.80875 -13 195 C-13.33 195.99 -13.66 196.98 -14 198 C-14.66 196.68 -15.32 195.36 -16 194 C-14.47005208 192.76302083 -12.94010417 191.52604167 -11.41015625 190.2890625 C-9.86733563 189.0333609 -9.86733563 189.0333609 -9 187 C-8.34 187 -7.68 187 -7 187 C-6.938125 186.443125 -6.87625 185.88625 -6.8125 185.3125 C-5.67448262 182.07352746 -3.45139366 180.28438874 -1 178 C0.42226757 176.60987407 1.83865288 175.21371178 3.25 173.8125 C3.93578125 173.13832031 4.6215625 172.46414062 5.328125 171.76953125 C7.07449111 170.09201005 7.07449111 170.09201005 8 168 C8.66 168 9.32 168 10 168 C10.2475 167.443125 10.495 166.88625 10.75 166.3125 C12.87913948 162.37359196 14.67082087 159.44305971 19 158 C18.67 157.67 18.34 157.34 18 157 C15.15802906 153.03350819 15.99302935 148.85656608 16.375 144.25 C16.43171875 143.45722656 16.4884375 142.66445312 16.546875 141.84765625 C16.68783695 139.89768265 16.8425712 137.94871329 17 136 C16.34 136 15.68 136 15 136 C15 134.68 15 133.36 15 132 C15.66 132 16.32 132 17 132 C16.814375 130.741875 16.62875 129.48375 16.4375 128.1875 C15.9254996 123.1727016 16.15387085 118.38369238 16.5 113.375 C17.09405804 104.62614524 16.84121699 96.02238101 16.31835938 87.27294922 C16.0480741 82.42165415 16.01945146 77.96421819 16.75537109 73.13745117 C17.29166262 68.45159061 17.10081349 63.70961207 17.0625 59 C17.05798828 57.93910156 17.05347656 56.87820312 17.04882812 55.78515625 C17.03713843 53.19004402 17.02075276 50.59505291 17 48 C16.01 47.505 16.01 47.505 15 47 C15.66 47 16.32 47 17 47 C16.814375 45.824375 16.62875 44.64875 16.4375 43.4375 C16.07561379 40.59694111 16.05716078 38.62845492 16.5 35.75 C17.09286041 31.3035469 16.66371248 27.3074842 16.15625 22.8671875 C16.00150889 20.02768811 16.31554405 17.74788933 17 15 C16.34 14.67 15.68 14.34 15 14 C15.66 14 16.32 14 17 14 C16.3137587 10.84678341 16.3137587 10.84678341 13.70703125 9.6484375 C6.60493417 6.47108177 6.60493417 6.47108177 -1 5 C-1.33 4.01 -1.66 3.02 -2 2 C-1.34 2 -0.68 2 0 2 C0 1.34 0 0.68 0 0 Z M34 137 C33.01 138.485 33.01 138.485 32 140 C33.97536745 139.65213292 33.97536745 139.65213292 36 139 C36.33 138.34 36.66 137.68 37 137 C36.01 137 35.02 137 34 137 Z M30 141 C29.67 141.66 29.34 142.32 29 143 C29.66 143 30.32 143 31 143 C30.67 142.34 30.34 141.68 30 141 Z M25.39453125 145.4609375 C24.87246094 146.09257812 24.35039063 146.72421875 23.8125 147.375 C23.28269531 148.00148437 22.75289062 148.62796875 22.20703125 149.2734375 C20.80901185 150.92208633 20.80901185 150.92208633 21 153 C23.9919735 153.3365155 23.9919735 153.3365155 25.60546875 151.5390625 C26.38857422 150.59160156 26.38857422 150.59160156 27.1875 149.625 C27.71730469 148.99851563 28.24710938 148.37203125 28.79296875 147.7265625 C30.19098815 146.07791367 30.19098815 146.07791367 30 144 C27.0080265 143.6634845 27.0080265 143.6634845 25.39453125 145.4609375 Z " fill="#EBDA90" transform="translate(92,78)"/>
<path d="M0 0 C0.66 1.32 1.32 2.64 2 4 C2.66 2.68 3.32 1.36 4 0 C3.99777939 0.78893646 3.99555878 1.57787292 3.99327087 2.39071655 C3.97282935 10.00308708 3.9578105 17.61544344 3.94818783 25.2278347 C3.94307378 29.1369282 3.93619939 33.04599818 3.92456055 36.95507812 C3.87523219 54.01080774 3.96222338 71.05158994 4.44140625 88.1015625 C4.46093794 88.8399876 4.48046963 89.5784127 4.50059319 90.33921432 C4.55689853 92.41205883 4.61995648 94.48456759 4.68579102 96.55712891 C4.72205093 97.73272369 4.75831085 98.90831848 4.79566956 100.11953735 C4.885098 103.06913962 4.885098 103.06913962 6 106 C5.34 106.99 4.68 107.98 4 109 C6.91517292 107.92598892 8.77810176 107.22189824 11 105 C11.8971875 105.2784375 11.8971875 105.2784375 12.8125 105.5625 C15.09373086 106.23547959 15.09373086 106.23547959 17.4375 104.9375 C20.4763034 102.63986816 22.57309018 99.92473747 25 97 C26.31555883 96.29891001 27.65100549 95.63437846 29 95 C30.36641062 94.10168649 31.71990956 93.18353952 33.0625 92.25 C37.3856138 89.315436 41.86924295 86.86765945 46.51953125 84.4921875 C49.13020765 82.92167036 51.0141519 81.30525024 53 79 C53 78.34 53 77.68 53 77 C54.65 77.66 56.3 78.32 58 79 C57.67 80.65 57.34 82.3 57 84 C56.34 83.67 55.68 83.34 55 83 C54.64333252 83.42667969 54.28666504 83.85335937 53.91918945 84.29296875 C48.54322653 90.58614604 42.74978891 96.43635628 36.90063477 102.28466797 C35.16849124 104.01903314 33.4445469 105.76129591 31.72070312 107.50390625 C30.62027978 108.60725787 29.51938584 109.71014039 28.41796875 110.8125 C27.90340622 111.33424805 27.38884369 111.85599609 26.85868835 112.39355469 C23.22886878 116 23.22886878 116 21 116 C21 116.66 21 117.32 21 118 C19.49609375 119.48046875 19.49609375 119.48046875 17.4375 121.1875 C14.6746132 123.53279758 12.03320243 125.90829405 9.5 128.5 C5.83736427 132.21179863 1.96103006 135.61118938 -2 139 C-3.11334908 139.95434796 -4.22662437 140.908782 -5.33984375 141.86328125 C-7.17254327 143.43413126 -9.00548455 145.00469532 -10.83911133 146.57446289 C-18.59530632 153.09514964 -18.59530632 153.09514964 -26 160 C-27.0209375 160.2165625 -27.0209375 160.2165625 -28.0625 160.4375 C-28.701875 160.623125 -29.34125 160.80875 -30 161 C-30.33 161.99 -30.66 162.98 -31 164 C-31.66 162.68 -32.32 161.36 -33 160 C-31.47005208 158.76302083 -29.94010417 157.52604167 -28.41015625 156.2890625 C-26.86733563 155.0333609 -26.86733563 155.0333609 -26 153 C-25.34 153 -24.68 153 -24 153 C-23.938125 152.443125 -23.87625 151.88625 -23.8125 151.3125 C-22.67448262 148.07352746 -20.45139366 146.28438874 -18 144 C-16.57773243 142.60987407 -15.16134712 141.21371178 -13.75 139.8125 C-13.06421875 139.13832031 -12.3784375 138.46414062 -11.671875 137.76953125 C-9.92550889 136.09201005 -9.92550889 136.09201005 -9 134 C-8.34 134 -7.68 134 -7 134 C-6.7525 133.443125 -6.505 132.88625 -6.25 132.3125 C-4.12086052 128.37359196 -2.32917913 125.44305971 2 124 C1.67 123.67 1.34 123.34 1 123 C-1.84197094 119.03350819 -1.00697065 114.85656608 -0.625 110.25 C-0.53992188 109.06083984 -0.53992188 109.06083984 -0.453125 107.84765625 C-0.31216305 105.89768265 -0.1574288 103.94871329 0 102 C-0.66 102 -1.32 102 -2 102 C-2 100.68 -2 99.36 -2 98 C-1.34 98 -0.68 98 0 98 C-0.2784375 96.1128125 -0.2784375 96.1128125 -0.5625 94.1875 C-1.0745004 89.1727016 -0.84612915 84.38369238 -0.5 79.375 C0.09405804 70.62614524 -0.15878301 62.02238101 -0.68164062 53.27294922 C-0.9519259 48.42165415 -0.98054854 43.96421819 -0.24462891 39.13745117 C0.29166262 34.45159061 0.10081349 29.70961207 0.0625 25 C0.05798828 23.93910156 0.05347656 22.87820312 0.04882812 21.78515625 C0.03713843 19.19004402 0.02075276 16.59505291 0 14 C-0.66 13.67 -1.32 13.34 -2 13 C-1.34 13 -0.68 13 0 13 C-0.185625 11.783125 -0.37125 10.56625 -0.5625 9.3125 C-0.98993182 5.97022061 -0.92258883 3.28031583 0 0 Z M13 107 C12.67 107.66 12.34 108.32 12 109 C12.66 109 13.32 109 14 109 C13.67 108.34 13.34 107.68 13 107 Z M8.39453125 111.4609375 C7.87246094 112.09257812 7.35039063 112.72421875 6.8125 113.375 C6.28269531 114.00148438 5.75289062 114.62796875 5.20703125 115.2734375 C3.80901185 116.92208633 3.80901185 116.92208633 4 119 C6.9919735 119.3365155 6.9919735 119.3365155 8.60546875 117.5390625 C9.38857422 116.59160156 9.38857422 116.59160156 10.1875 115.625 C10.71730469 114.99851562 11.24710938 114.37203125 11.79296875 113.7265625 C13.19098815 112.07791367 13.19098815 112.07791367 13 110 C10.0080265 109.6634845 10.0080265 109.6634845 8.39453125 111.4609375 Z " fill="#E8D283" transform="translate(109,112)"/>
<path d="M0 0 C2.1875 0.875 2.1875 0.875 3.1875 2.875 C2.60266846 2.9663623 2.01783691 3.05772461 1.4152832 3.15185547 C-1.36614085 4.05471334 -2.49206851 5.29319798 -4.45703125 7.4453125 C-5.47313477 8.54359375 -5.47313477 8.54359375 -6.50976562 9.6640625 C-7.20779297 10.43492188 -7.90582031 11.20578125 -8.625 12 C-10.00544487 13.50358314 -11.38694626 15.00619702 -12.76953125 16.5078125 C-13.43936035 17.23774414 -14.10918945 17.96767578 -14.79931641 18.71972656 C-17.72479423 21.85168366 -20.75275705 24.87473369 -23.8125 27.875 C-23.1525 28.535 -22.4925 29.195 -21.8125 29.875 C-22.3075 30.37 -22.3075 30.37 -22.8125 30.875 C-22.1525 31.205 -21.4925 31.535 -20.8125 31.875 C-20.8125 33.525 -20.8125 35.175 -20.8125 36.875 C-21.8025 36.875 -22.7925 36.875 -23.8125 36.875 C-23.8125 70.865 -23.8125 104.855 -23.8125 139.875 C-24.1425 139.875 -24.4725 139.875 -24.8125 139.875 C-25.0975998 127.64412908 -25.37620666 115.41312893 -25.64661503 103.18192387 C-25.77238976 97.50198263 -25.90036749 91.82210914 -26.03344727 86.14233398 C-26.16188759 80.6570597 -26.28445295 75.17168225 -26.40301323 69.68618584 C-26.44917733 67.59747056 -26.49742804 65.50880029 -26.54783821 63.42018318 C-26.61829308 60.48602603 -26.68120488 57.55179392 -26.74243164 54.61743164 C-26.76472839 53.76146896 -26.78702515 52.90550629 -26.80999756 52.02360535 C-26.91426696 46.54676062 -26.51686705 41.30892915 -25.8125 35.875 C-27.46201226 36.82698711 -29.10701508 37.78679145 -30.75 38.75 C-31.66652344 39.28367188 -32.58304688 39.81734375 -33.52734375 40.3671875 C-35.91950296 41.67212563 -35.91950296 41.67212563 -36.8125 43.875 C-38.1325 43.875 -39.4525 43.875 -40.8125 43.875 C-44.76311972 50.81527788 -44.38859336 58.22795314 -44.54296875 65.99609375 C-44.58230052 67.46585858 -44.62287265 68.9355907 -44.66462708 70.4052887 C-44.77065072 74.25353779 -44.85992996 78.1019962 -44.94561768 81.95074463 C-45.03623294 85.8860508 -45.14283076 89.82092131 -45.24804688 93.75585938 C-45.45176006 101.46190316 -45.63776921 109.16823876 -45.8125 116.875 C-46.1425 116.875 -46.4725 116.875 -46.8125 116.875 C-46.82280746 116.0525882 -46.83311493 115.23017639 -46.84373474 114.38284302 C-46.94160168 106.64270086 -47.04410056 98.90264063 -47.15183926 91.16263008 C-47.20706799 87.1831555 -47.2604879 83.20367356 -47.30981445 79.22412109 C-47.35745877 75.38560359 -47.40980158 71.54717659 -47.46544075 67.70876694 C-47.48586401 66.24233114 -47.50457715 64.77587053 -47.52157402 63.30939102 C-47.54561876 61.25971735 -47.575673 59.21021518 -47.60717773 57.16064453 C-47.63049416 55.408582 -47.63049416 55.408582 -47.65428162 53.62112427 C-47.62891289 50.91298594 -47.62891289 50.91298594 -48.8125 48.875 C-48.1525 48.875 -47.4925 48.875 -46.8125 48.875 C-47.1425 47.885 -47.4725 46.895 -47.8125 45.875 C-50.8870356 46.6513932 -50.8870356 46.6513932 -52.8125 48.875 C-54.12371471 49.62348506 -55.46010558 50.32877483 -56.8125 51 C-57.51375 51.35320312 -58.215 51.70640625 -58.9375 52.0703125 C-60.8125 52.875 -60.8125 52.875 -62.8125 52.875 C-62.8125 53.535 -62.8125 54.195 -62.8125 54.875 C-63.92625 55.32875 -65.04 55.7825 -66.1875 56.25 C-69.77449008 57.59965986 -69.77449008 57.59965986 -71.8125 59.875 C-73.6875 60.4375 -73.6875 60.4375 -75.8125 60.875 C-76.555 61.060625 -77.2975 61.24625 -78.0625 61.4375 C-78.64 61.581875 -79.2175 61.72625 -79.8125 61.875 C-79.30646008 59.70625748 -78.81266187 57.87532373 -77.8125 55.875 C-77.06871094 55.59269531 -76.32492188 55.31039062 -75.55859375 55.01953125 C-72.33510039 53.67602691 -70.41398013 51.9490611 -67.875 49.5625 C-62.27423954 44.37012833 -62.27423954 44.37012833 -59.375 42 C-56.89679885 40.02541478 -56.89679885 40.02541478 -55.1875 38.1875 C-53.8125 36.875 -53.8125 36.875 -52.1484375 36.10546875 C-48.86172693 34.37417472 -45.99741102 32.13262386 -43.0625 29.875 C-42.46050781 29.42382812 -41.85851562 28.97265625 -41.23828125 28.5078125 C-39.72343644 27.34677498 -38.26280179 26.11572061 -36.8125 24.875 C-36.8125 24.215 -36.8125 23.555 -36.8125 22.875 C-35.92848511 22.69952637 -35.92848511 22.69952637 -35.02661133 22.52050781 C-32.69493445 21.84072463 -31.31669519 20.99981276 -29.38671875 19.546875 C-28.75443359 19.07636719 -28.12214844 18.60585937 -27.47070312 18.12109375 C-26.82037109 17.62738281 -26.17003906 17.13367188 -25.5 16.625 C-24.21255344 15.66103901 -22.92479432 14.69749533 -21.63671875 13.734375 C-21.00556152 13.26193359 -20.3744043 12.78949219 -19.72412109 12.30273438 C-18.77786865 11.59600586 -18.77786865 11.59600586 -17.8125 10.875 C-17.1623291 10.38837891 -16.5121582 9.90175781 -15.84228516 9.40039062 C-11.04273184 5.875 -11.04273184 5.875 -8.8125 5.875 C-8.8125 5.215 -8.8125 4.555 -8.8125 3.875 C-3.8420003 -0.17075557 -3.8420003 -0.17075557 0 0 Z M-25.8125 28.875 C-24.8125 30.875 -24.8125 30.875 -24.8125 30.875 Z M-28.8125 32.875 C-29.8025 33.37 -29.8025 33.37 -30.8125 33.875 C-30.8125 34.535 -30.8125 35.195 -30.8125 35.875 C-29.4925 35.215 -28.1725 34.555 -26.8125 33.875 C-27.4725 33.545 -28.1325 33.215 -28.8125 32.875 Z M-23.8125 32.875 C-23.4825 33.865 -23.1525 34.855 -22.8125 35.875 C-22.4825 34.885 -22.1525 33.895 -21.8125 32.875 C-22.4725 32.875 -23.1325 32.875 -23.8125 32.875 Z " fill="#F1E095" transform="translate(271.8125,80.125)"/>
<path d="M0 0 C4.37606289 1.94491684 7.85057267 4.53348927 10.8125 8.3125 C13.30945851 11.38019188 16.08867404 13.79883671 19.09765625 16.3515625 C21.59897871 18.51903288 23.6346662 20.30778858 25.1875 23.25 C27.37864492 26.57449573 30.00018212 28.74257359 33.0625 31.25390625 C35.03842502 33.034629 36.5446281 34.77600982 38 37 C38 37.66 38 38.32 38 39 C38.5969165 39.2678833 39.19383301 39.5357666 39.80883789 39.81176758 C42.02552341 41.01384094 43.35580478 42.17170256 45.05859375 44.01171875 C45.60966797 44.60533203 46.16074219 45.19894531 46.72851562 45.81054688 C47.29248047 46.42994141 47.85644531 47.04933594 48.4375 47.6875 C48.99759766 48.28755859 49.55769531 48.88761719 50.13476562 49.50585938 C53.35057187 52.99934317 56.17207475 56.58554905 58.8762207 60.48413086 C60.32777281 62.4421337 61.97451974 63.91948154 63.875 65.4375 C67.31221618 68.32861641 70.23183932 71.39015376 73.1328125 74.8125 C76.03603447 78.21376424 79.0687686 81.49708365 82.08203125 84.80078125 C84 87 84 87 86 90 C85.505 91.485 85.505 91.485 85 93 C84.401875 92.690625 83.80375 92.38125 83.1875 92.0625 C80.91043228 90.89790296 80.91043228 90.89790296 78 90 C78.99 88.515 78.99 88.515 80 87 C78.35 87.66 76.7 88.32 75 89 C74.566875 88.38125 74.13375 87.7625 73.6875 87.125 C72.00259517 84.7802755 72.00259517 84.7802755 69 83 C67.82578322 81.85933227 66.65546236 80.71418968 65.51171875 79.54296875 C64.40086335 78.40914994 63.27641829 77.28860493 62.14453125 76.17578125 C58.08778211 72.18180579 54.24704664 68.0806494 50.54296875 63.7578125 C49.28121617 62.32037286 47.93240069 60.95977503 46.5625 59.625 C45 58 45 58 45 56 C44.401875 55.71125 43.80375 55.4225 43.1875 55.125 C41 54 41 54 38 52 C38 51.34 38 50.68 38 50 C36.69306167 48.64078414 35.35053546 47.31590635 34 46 C31.00871702 42.6681254 28.09472971 39.26745892 25.16796875 35.87890625 C22.61567874 32.93737811 20.06778629 30.06778629 17.3125 27.3125 C15 25 15 25 12.875 22.25 C11.12568403 19.74947545 11.12568403 19.74947545 8 19 C7.67 19.66 7.34 20.32 7 21 C6.67 19.68 6.34 18.36 6 17 C6.66 17 7.32 17 8 17 C6.68 15.02 5.36 13.04 4 11 C4.61875 11.165 5.2375 11.33 5.875 11.5 C7.96063386 12.07634644 7.96063386 12.07634644 10 12 C9.505 11.54625 9.01 11.0925 8.5 10.625 C7 9 7 9 7 7 C6.34 7 5.68 7 5 7 C3.7109375 5.46875 3.7109375 5.46875 2.375 3.5 C1.70597656 2.52546875 1.70597656 2.52546875 1.0234375 1.53125 C0.68570313 1.0259375 0.34796875 0.520625 0 0 Z M62 67 C63 69 63 69 63 69 Z M63 69 C63.66 69.66 64.32 70.32 65 71 C65 70.34 65 69.68 65 69 C64.34 69 63.68 69 63 69 Z M68 74 C69.39332574 77.36720387 70.9789286 78.9859524 74 81 C72.60667426 77.63279613 71.0210714 76.0140476 68 74 Z M76 84 C76.33 84.66 76.66 85.32 77 86 C77.66 86 78.32 86 79 86 C79 85.34 79 84.68 79 84 C78.01 84 77.02 84 76 84 Z " fill="#DEC473" transform="translate(150,159)"/>
<path d="M0 0 C0.66 1.32 1.32 2.64 2 4 C2.66 2.68 3.32 1.36 4 0 C3.99777939 0.78893646 3.99555878 1.57787292 3.99327087 2.39071655 C3.97282935 10.00308708 3.9578105 17.61544344 3.94818783 25.2278347 C3.94307378 29.1369282 3.93619939 33.04599818 3.92456055 36.95507812 C3.87523219 54.01080774 3.96222338 71.05158994 4.44140625 88.1015625 C4.46093794 88.8399876 4.48046963 89.5784127 4.50059319 90.33921432 C4.55689853 92.41205883 4.61995648 94.48456759 4.68579102 96.55712891 C4.72205093 97.73272369 4.75831085 98.90831848 4.79566956 100.11953735 C4.885098 103.06913962 4.885098 103.06913962 6 106 C5.34 106.99 4.68 107.98 4 109 C6.91517292 107.92598892 8.77810176 107.22189824 11 105 C11.8971875 105.2784375 11.8971875 105.2784375 12.8125 105.5625 C15.09373086 106.23547959 15.09373086 106.23547959 17.4375 104.9375 C20.4763034 102.63986816 22.57309018 99.92473747 25 97 C27.0625 95.75 27.0625 95.75 29 95 C29.7425 94.62875 30.485 94.2575 31.25 93.875 C31.8275 93.58625 32.405 93.2975 33 93 C33 93.99 33 94.98 33 96 C32.236875 96.45375 31.47375 96.9075 30.6875 97.375 C27.86230227 98.79316725 27.86230227 98.79316725 26.5625 101.4375 C24.5776873 104.69259283 22.16516386 105.91099185 19 108 C17.18430949 109.91498608 15.61706643 111.90732579 14 114 C13.01 113.67 12.02 113.34 11 113 C11.66 112.01 12.32 111.02 13 110 C8.44984107 111.51671964 6.49942736 115.16891053 4 119 C4.99 119.33 5.98 119.66 7 120 C6.34 120 5.68 120 5 120 C4.9175 120.61875 4.835 121.2375 4.75 121.875 C4 124 4 124 1.9375 125.25 C1.298125 125.4975 0.65875 125.745 0 126 C-0.33 125.34 -0.66 124.68 -1 124 C-0.01 124 0.98 124 2 124 C1.67 123.67 1.34 123.34 1 123 C-1.84197094 119.03350819 -1.00697065 114.85656608 -0.625 110.25 C-0.56828125 109.45722656 -0.5115625 108.66445312 -0.453125 107.84765625 C-0.31216305 105.89768265 -0.1574288 103.94871329 0 102 C-0.66 102 -1.32 102 -2 102 C-2 100.68 -2 99.36 -2 98 C-1.34 98 -0.68 98 0 98 C-0.185625 96.741875 -0.37125 95.48375 -0.5625 94.1875 C-1.0745004 89.1727016 -0.84612915 84.38369238 -0.5 79.375 C0.09405804 70.62614524 -0.15878301 62.02238101 -0.68164062 53.27294922 C-0.9519259 48.42165415 -0.98054854 43.96421819 -0.24462891 39.13745117 C0.29166262 34.45159061 0.10081349 29.70961207 0.0625 25 C0.05798828 23.93910156 0.05347656 22.87820312 0.04882812 21.78515625 C0.03713843 19.19004402 0.02075276 16.59505291 0 14 C-0.66 13.67 -1.32 13.34 -2 13 C-1.34 13 -0.68 13 0 13 C-0.185625 11.783125 -0.37125 10.56625 -0.5625 9.3125 C-0.98993182 5.97022061 -0.92258883 3.28031583 0 0 Z M13 107 C12.67 107.66 12.34 108.32 12 109 C12.66 109 13.32 109 14 109 C13.67 108.34 13.34 107.68 13 107 Z " fill="#B6A163" transform="translate(109,112)"/>
<path d="M0 0 C1.4540625 0.0309375 1.4540625 0.0309375 2.9375 0.0625 C2.6075 0.7225 2.2775 1.3825 1.9375 2.0625 C2.5975 2.3925 3.2575 2.7225 3.9375 3.0625 C3.9375 4.7125 3.9375 6.3625 3.9375 8.0625 C2.9475 8.0625 1.9575 8.0625 0.9375 8.0625 C0.9375 42.0525 0.9375 76.0425 0.9375 111.0625 C0.6075 111.0625 0.2775 111.0625 -0.0625 111.0625 C-0.3475998 98.83162908 -0.62620666 86.60062893 -0.89661503 74.36942387 C-1.02238976 68.68948263 -1.15036749 63.00960914 -1.28344727 57.32983398 C-1.41188759 51.8445597 -1.53445295 46.35918225 -1.65301323 40.87368584 C-1.69917733 38.78497056 -1.74742804 36.69630029 -1.79783821 34.60768318 C-1.86829308 31.67352603 -1.93120488 28.73929392 -1.99243164 25.80493164 C-2.01472839 24.94896896 -2.03702515 24.09300629 -2.05999756 23.21110535 C-2.16426696 17.73426062 -1.76686705 12.49642915 -1.0625 7.0625 C-2.71201226 8.01448711 -4.35701508 8.97429145 -6 9.9375 C-6.91652344 10.47117187 -7.83304688 11.00484375 -8.77734375 11.5546875 C-11.16950296 12.85962563 -11.16950296 12.85962563 -12.0625 15.0625 C-13.3825 15.0625 -14.7025 15.0625 -16.0625 15.0625 C-20.01311972 22.00277788 -19.63859336 29.41545314 -19.79296875 37.18359375 C-19.83230052 38.65335858 -19.87287265 40.1230907 -19.91462708 41.5927887 C-20.02065072 45.44103779 -20.10992996 49.2894962 -20.19561768 53.13824463 C-20.28623294 57.0735508 -20.39283076 61.00842131 -20.49804688 64.94335938 C-20.70176006 72.64940316 -20.88776921 80.35573876 -21.0625 88.0625 C-21.3925 88.0625 -21.7225 88.0625 -22.0625 88.0625 C-22.07280746 87.2400882 -22.08311493 86.41767639 -22.09373474 85.57034302 C-22.19160168 77.83020086 -22.29410056 70.09014063 -22.40183926 62.35013008 C-22.45706799 58.3706555 -22.5104879 54.39117356 -22.55981445 50.41162109 C-22.60745877 46.57310359 -22.65980158 42.73467659 -22.71544075 38.89626694 C-22.73586401 37.42983114 -22.75457715 35.96337053 -22.77157402 34.49689102 C-22.79561876 32.44721735 -22.825673 30.39771518 -22.85717773 28.34814453 C-22.88049416 26.596082 -22.88049416 26.596082 -22.90428162 24.80862427 C-22.87891289 22.10048594 -22.87891289 22.10048594 -24.0625 20.0625 C-23.4025 20.0625 -22.7425 20.0625 -22.0625 20.0625 C-22.5575 18.5775 -22.5575 18.5775 -23.0625 17.0625 C-26.1370356 17.8388932 -26.1370356 17.8388932 -28.0625 20.0625 C-29.37371471 20.81098506 -30.71010558 21.51627483 -32.0625 22.1875 C-32.76375 22.54070312 -33.465 22.89390625 -34.1875 23.2578125 C-36.0625 24.0625 -36.0625 24.0625 -38.0625 24.0625 C-38.0625 24.7225 -38.0625 25.3825 -38.0625 26.0625 C-39.17625 26.51625 -40.29 26.97 -41.4375 27.4375 C-45.02449008 28.78715986 -45.02449008 28.78715986 -47.0625 31.0625 C-48.9375 31.625 -48.9375 31.625 -51.0625 32.0625 C-51.805 32.248125 -52.5475 32.43375 -53.3125 32.625 C-53.89 32.769375 -54.4675 32.91375 -55.0625 33.0625 C-54.55646008 30.89375748 -54.06266187 29.06282373 -53.0625 27.0625 C-51.41698038 26.34522222 -49.74827711 25.67924772 -48.0625 25.0625 C-47.4025 24.7325 -46.7425 24.4025 -46.0625 24.0625 C-45.7325 24.7225 -45.4025 25.3825 -45.0625 26.0625 C-43.0825 25.7325 -41.1025 25.4025 -39.0625 25.0625 C-38.7325 24.0725 -38.4025 23.0825 -38.0625 22.0625 C-36.25585938 20.83911133 -36.25585938 20.83911133 -33.90625 19.64453125 C-33.05192383 19.19827393 -32.19759766 18.7520166 -31.31738281 18.29223633 C-30.40827148 17.82454834 -29.49916016 17.35686035 -28.5625 16.875 C-21.19453057 12.97549762 -14.78028122 9.22146805 -9.0625 3.0625 C-8.5675 4.0525 -8.5675 4.0525 -8.0625 5.0625 C-7.4025 5.0625 -6.7425 5.0625 -6.0625 5.0625 C-6.0625 5.7225 -6.0625 6.3825 -6.0625 7.0625 C-5.0725 6.4025 -4.0825 5.7425 -3.0625 5.0625 C-3.3409375 4.1034375 -3.3409375 4.1034375 -3.625 3.125 C-3.769375 2.444375 -3.91375 1.76375 -4.0625 1.0625 C-3.0625 0.0625 -3.0625 0.0625 0 0 Z M0.9375 4.0625 C1.2675 5.0525 1.5975 6.0425 1.9375 7.0625 C2.2675 6.0725 2.5975 5.0825 2.9375 4.0625 C2.2775 4.0625 1.6175 4.0625 0.9375 4.0625 Z " fill="#B6A873" transform="translate(247.0625,108.9375)"/>
<path d="M0 0 C9.43017499 1.886035 15.1979119 11.27926348 20.82421875 18.38671875 C23.08132212 21.09767414 25.48941468 23.52259422 28 26 C30.31184937 28.41868617 32.59422272 30.86452923 34.875 33.3125 C35.49415283 33.97677002 36.11330566 34.64104004 36.7512207 35.32543945 C45.32796984 44.55264383 45.32796984 44.55264383 49 49 C49.57363281 49.66644531 50.14726562 50.33289063 50.73828125 51.01953125 C51.15464844 51.67308594 51.57101563 52.32664063 52 53 C51.67 53.99 51.34 54.98 51 56 C50.401875 55.690625 49.80375 55.38125 49.1875 55.0625 C46.91043228 53.89790296 46.91043228 53.89790296 44 53 C44.66 52.01 45.32 51.02 46 50 C44.35 50.66 42.7 51.32 41 52 C40.566875 51.38125 40.13375 50.7625 39.6875 50.125 C38.00259517 47.7802755 38.00259517 47.7802755 35 46 C33.82578322 44.85933227 32.65546236 43.71418968 31.51171875 42.54296875 C30.40086335 41.40914994 29.27641829 40.28860493 28.14453125 39.17578125 C22.33777553 33.45887861 16.83823548 27.56721452 12 21 C13.32 21.33 14.64 21.66 16 22 C16 22.66 16 23.32 16 24 C16.66 24 17.32 24 18 24 C16.12466943 18.37400828 12.85134055 13.85134055 8.6875 9.6875 C8.130625 9.130625 7.57375 8.57375 7 8 C7 7.34 7 6.68 7 6 C6.401875 5.7525 5.80375 5.505 5.1875 5.25 C2.71352479 3.83629988 1.56629745 2.34944617 0 0 Z M28 30 C29 32 29 32 29 32 Z M29 32 C29.66 32.66 30.32 33.32 31 34 C31 33.34 31 32.68 31 32 C30.34 32 29.68 32 29 32 Z M34 37 C35.39332574 40.36720387 36.9789286 41.9859524 40 44 C38.60667426 40.63279613 37.0210714 39.0140476 34 37 Z M42 47 C42.33 47.66 42.66 48.32 43 49 C43.66 49 44.32 49 45 49 C45 48.34 45 47.68 45 47 C44.01 47 43.02 47 42 47 Z " fill="#908457" transform="translate(184,196)"/>
<path d="M0 0 C0.0232596 7.29370415 0.04098411 14.58740018 0.05181217 21.88113403 C0.05701137 25.26858844 0.06405465 28.65601731 0.07543945 32.04345703 C0.08761141 35.9456448 0.0932527 39.84779666 0.09765625 43.75 C0.10281754 44.95551514 0.10797882 46.16103027 0.11329651 47.40307617 C0.11369152 53.36809012 -0.08181597 59.10328871 -1 65 C-1.99 64.34 -2.98 63.68 -4 63 C-4.53618048 60.21969333 -4.88788131 57.62071219 -5.125 54.8125 C-5.20282715 53.996604 -5.2806543 53.18070801 -5.36083984 52.34008789 C-5.58830962 49.89443015 -5.79526144 47.44764943 -6 45 C-6.1134375 43.79601562 -6.226875 42.59203125 -6.34375 41.3515625 C-6.6553608 37.56895366 -6.85783323 33.79190372 -7 30 C-7.03931641 29.0085498 -7.07863281 28.01709961 -7.11914062 26.99560547 C-7.23651409 23.62211303 -7.31077146 20.24989564 -7.375 16.875 C-7.41318848 15.7830835 -7.45137695 14.69116699 -7.49072266 13.56616211 C-7.58134703 4.87771916 -7.58134703 4.87771916 -4.6015625 1.7578125 C-2 0 -2 0 0 0 Z " fill="#F8EFAC" transform="translate(246,116)"/>
<path d="M0 0 C1.65 0 3.3 0 5 0 C0.70836861 5.25724845 -3.82126735 9.63249288 -9 14 C-10.71951968 15.46989503 -12.43643589 16.94279954 -14.15332031 18.41577148 C-15.38133145 19.46925697 -16.60984479 20.52215734 -17.83886719 21.57446289 C-25.59533319 28.09497855 -25.59533319 28.09497855 -33 35 C-33.680625 35.144375 -34.36125 35.28875 -35.0625 35.4375 C-35.701875 35.623125 -36.34125 35.80875 -37 36 C-37.33 36.99 -37.66 37.98 -38 39 C-38.66 37.68 -39.32 36.36 -40 35 C-38.47005208 33.76302083 -36.94010417 32.52604167 -35.41015625 31.2890625 C-33.86733563 30.0333609 -33.86733563 30.0333609 -33 28 C-32.34 28 -31.68 28 -31 28 C-30.938125 27.443125 -30.87625 26.88625 -30.8125 26.3125 C-29.67448262 23.07352746 -27.45139366 21.28438874 -25 19 C-23.57773243 17.60987407 -22.16134712 16.21371178 -20.75 14.8125 C-20.06421875 14.13832031 -19.3784375 13.46414062 -18.671875 12.76953125 C-16.92550889 11.09201005 -16.92550889 11.09201005 -16 9 C-15.34 9 -14.68 9 -14 9 C-13.773125 8.4225 -13.54625 7.845 -13.3125 7.25 C-11.66961977 4.4336339 -9.60466773 2.91922886 -7 1 C-6.34 2.65 -5.68 4.3 -5 6 C-1.62911733 3.72584713 -1.62911733 3.72584713 0 0 Z " fill="#C4A95F" transform="translate(116,237)"/>
<path d="M0 0 C2.1875 0.875 2.1875 0.875 3.1875 2.875 C2.31025269 3.01095581 2.31025269 3.01095581 1.4152832 3.1496582 C-1.37657019 4.05865507 -2.49456178 5.31043291 -4.45703125 7.48046875 C-5.13443359 8.21716797 -5.81183594 8.95386719 -6.50976562 9.71289062 C-7.20779297 10.48826172 -7.90582031 11.26363281 -8.625 12.0625 C-13.44722914 17.37374393 -18.25886985 22.32320117 -23.8125 26.875 C-23.4825 25.225 -23.1525 23.575 -22.8125 21.875 C-22.1525 21.875 -21.4925 21.875 -20.8125 21.875 C-19.43696506 18.44830419 -19.43696506 18.44830419 -18.8125 14.875 C-20.4625 15.535 -22.1125 16.195 -23.8125 16.875 C-23.4825 17.865 -23.1525 18.855 -22.8125 19.875 C-27.5625 21 -27.5625 21 -29.8125 19.875 C-25.81951395 16.86550805 -21.81916269 13.86624131 -17.8125 10.875 C-17.05839844 10.31039062 -16.30429688 9.74578125 -15.52734375 9.1640625 C-11.05003613 5.875 -11.05003613 5.875 -8.8125 5.875 C-8.8125 5.215 -8.8125 4.555 -8.8125 3.875 C-3.8420003 -0.17075557 -3.8420003 -0.17075557 0 0 Z " fill="#9D8B5A" transform="translate(271.8125,80.125)"/>
<path d="M0 0 C0 24.09 0 48.18 0 73 C-0.33 73 -0.66 73 -1 73 C-1.01030746 72.1775882 -1.02061493 71.35517639 -1.03123474 70.50784302 C-1.12910168 62.76770086 -1.23160056 55.02764063 -1.33933926 47.28763008 C-1.39456799 43.3081555 -1.4479879 39.32867356 -1.49731445 35.34912109 C-1.54495877 31.51060359 -1.59730158 27.67217659 -1.65294075 23.83376694 C-1.67336401 22.36733114 -1.69207715 20.90087053 -1.70907402 19.43439102 C-1.73311876 17.38471735 -1.763173 15.33521518 -1.79467773 13.28564453 C-1.81799416 11.533582 -1.81799416 11.533582 -1.84178162 9.74612427 C-1.81641289 7.03798594 -1.81641289 7.03798594 -3 5 C-2.34 5 -1.68 5 -1 5 C-1.495 3.515 -1.495 3.515 -2 2 C-5.0745356 2.7763932 -5.0745356 2.7763932 -7 5 C-8.31121471 5.74848506 -9.64760558 6.45377483 -11 7.125 C-12.051875 7.65480469 -12.051875 7.65480469 -13.125 8.1953125 C-15 9 -15 9 -17 9 C-17 9.66 -17 10.32 -17 11 C-18.670625 11.680625 -18.670625 11.680625 -20.375 12.375 C-23.96199008 13.72465986 -23.96199008 13.72465986 -26 16 C-27.875 16.5625 -27.875 16.5625 -30 17 C-30.7425 17.185625 -31.485 17.37125 -32.25 17.5625 C-32.8275 17.706875 -33.405 17.85125 -34 18 C-33.49396008 15.83125748 -33.00016187 14.00032373 -32 12 C-30.35448038 11.28272222 -28.68577711 10.61674772 -27 10 C-26.34 9.67 -25.68 9.34 -25 9 C-24.67 9.66 -24.34 10.32 -24 11 C-22.02 10.67 -20.04 10.34 -18 10 C-17.67 9.01 -17.34 8.02 -17 7 C-14.19921875 5.17578125 -14.19921875 5.17578125 -10.6875 3.3125 C-9.53636719 2.68988281 -8.38523438 2.06726563 -7.19921875 1.42578125 C-4 0 -4 0 0 0 Z " fill="#867C54" transform="translate(226,124)"/>
<path d="M0 0 C1.5 1.375 1.5 1.375 3 3 C3 3.66 3 4.32 3 5 C3.66 5 4.32 5 5 5 C5 5.66 5 6.32 5 7 C4.01 6.67 3.02 6.34 2 6 C1.85116176 11.85315939 1.7425527 17.70520644 1.67041016 23.55981445 C1.6403233 25.54926757 1.59944246 27.53858898 1.54736328 29.52758789 C1.47418875 32.39502515 1.44046321 35.26070244 1.4140625 38.12890625 C1.36761093 39.45276085 1.36761093 39.45276085 1.32022095 40.80335999 C1.3175999 45.6635764 1.7823569 48.26356818 5.09912109 51.92944336 C5.66231049 52.45525497 6.22549988 52.98106659 6.80575562 53.52281189 C7.19985626 54.01028397 7.59395691 54.49775604 8 55 C7.67 55.99 7.34 56.98 7 58 C6.34 58 5.68 58 5 58 C2 53.61538462 2 53.61538462 2 51 C1.34 51 0.68 51 0 51 C-1.20029908 48.59940183 -1.11459743 47.10639351 -1.09765625 44.4296875 C-1.09443359 43.53378906 -1.09121094 42.63789063 -1.08789062 41.71484375 C-1.07951172 40.77769531 -1.07113281 39.84054688 -1.0625 38.875 C-1.05798828 37.93011719 -1.05347656 36.98523438 -1.04882812 36.01171875 C-1.03702357 33.67441613 -1.02055759 31.33723939 -1 29 C-1.66 28.67 -2.32 28.34 -3 28 C-2.34 28 -1.68 28 -1 28 C-1 27.01 -1 26.02 -1 25 C-1.66 24.67 -2.32 24.34 -3 24 C-2.01 22.515 -2.01 22.515 -1 21 C-1.66 20.67 -2.32 20.34 -3 20 C-2.505 18.515 -2.505 18.515 -2 17 C-2.165 16.319375 -2.33 15.63875 -2.5 14.9375 C-3.23751007 10.60462836 -2.87604184 6.30403167 -2 2 C-1.34 1.34 -0.68 0.68 0 0 Z " fill="#9D9262" transform="translate(147,112)"/>
<path d="M0 0 C0.33 0 0.66 0 1 0 C3.14997336 15.97123068 1.90006731 32.43555227 1.5 48.5 C1.45164713 50.49869367 1.40346895 52.49739158 1.35546875 54.49609375 C1.23898755 59.33078021 1.12016183 64.16540368 1 69 C-2 69 -2 69 -3.6875 67.5 C-4.120625 67.005 -4.55375 66.51 -5 66 C-4 64 -4 64 -3 63 C-2.34 63 -1.68 63 -1 63 C-1.00523682 61.90872803 -1.01047363 60.81745605 -1.01586914 59.69311523 C-1.19097687 19.73618806 -1.19097687 19.73618806 0 0 Z " fill="#E8D286" transform="translate(227,134)"/>
<path d="M0 0 C0.66 0.33 1.32 0.66 2 1 C4.00097518 1.12027472 6.0058621 1.17737258 8.01025391 1.20532227 C9.27141022 1.22526749 10.53256653 1.24521271 11.8319397 1.26576233 C13.21347937 1.28274665 14.59502034 1.29962546 15.9765625 1.31640625 C17.38618582 1.3369756 18.79580297 1.35797207 20.20541382 1.37937927 C23.91747035 1.43460195 27.62958257 1.48401031 31.34173584 1.53222656 C35.12891603 1.58244018 38.91601526 1.63812697 42.703125 1.69335938 C50.13534812 1.80094333 57.56763852 1.90238773 65 2 C64.67 2.99 64.34 3.98 64 5 C61.69 5 59.38 5 57 5 C57 4.34 57 3.68 57 3 C36.21 3.495 36.21 3.495 15 4 C15.33 4.33 15.66 4.66 16 5 C16.04063832 6.66617115 16.042721 8.33388095 16 10 C15.21625 9.731875 14.4325 9.46375 13.625 9.1875 C11.57862081 8.5171344 9.52311139 7.87020463 7.4453125 7.3046875 C6.55585937 7.05976562 5.66640625 6.81484375 4.75 6.5625 C3.89921875 6.33691406 3.0484375 6.11132812 2.171875 5.87890625 C0 5 0 5 -2 2 C-1.34 2 -0.68 2 0 2 C0 1.34 0 0.68 0 0 Z " fill="#BBA360" transform="translate(92,78)"/>
<path d="M0 0 C0.66 1.32 1.32 2.64 2 4 C2.66 2.68 3.32 1.36 4 0 C4 12.87 4 25.74 4 39 C2.515 39.495 2.515 39.495 1 40 C-0.01973129 36.94080612 -0.11533602 34.87581975 -0.09765625 31.67578125 C-0.09443359 30.64775391 -0.09121094 29.61972656 -0.08789062 28.56054688 C-0.07951172 27.48869141 -0.07113281 26.41683594 -0.0625 25.3125 C-0.05798828 24.22904297 -0.05347656 23.14558594 -0.04882812 22.02929688 C-0.03703743 19.35280915 -0.02058063 16.67643223 0 14 C-0.66 13.67 -1.32 13.34 -2 13 C-1.34 13 -0.68 13 0 13 C-0.185625 11.783125 -0.37125 10.56625 -0.5625 9.3125 C-0.98993182 5.97022061 -0.92258883 3.28031583 0 0 Z " fill="#E7D48B" transform="translate(109,112)"/>
<path d="M0 0 C1.65 0.66 3.3 1.32 5 2 C4.67 3.65 4.34 5.3 4 7 C3.34 6.67 2.68 6.34 2 6 C1.57589844 6.50789062 1.15179688 7.01578125 0.71484375 7.5390625 C-3.22780882 12.16626354 -7.29100134 16.15591946 -12 20 C-12 18.68 -12 17.36 -12 16 C-14.31 16.33 -16.62 16.66 -19 17 C-19 16.01 -19 15.02 -19 14 C-17.96359375 13.46890625 -16.9271875 12.9378125 -15.859375 12.390625 C-14.48937873 11.67747626 -13.11959836 10.96391264 -11.75 10.25 C-11.06808594 9.90195313 -10.38617188 9.55390625 -9.68359375 9.1953125 C-5.90598211 7.21481708 -2.74267576 5.36472593 0 2 C0 1.34 0 0.68 0 0 Z " fill="#CDB570" transform="translate(162,189)"/>
<path d="M0 0 C0.66 0.33 1.32 0.66 2 1 C1 4 1 4 -1.8125 5.5 C-2.864375 5.995 -3.91625 6.49 -5 7 C-8.4359968 9.22739561 -8.4359968 9.22739561 -10 13 C-10.66 13 -11.32 13 -12 13 C-12 13.66 -12 14.32 -12 15 C-11.34 15 -10.68 15 -10 15 C-10 15.66 -10 16.32 -10 17 C-10.63808594 17.33773437 -11.27617187 17.67546875 -11.93359375 18.0234375 C-12.75988281 18.46945313 -13.58617187 18.91546875 -14.4375 19.375 C-15.26121094 19.81585938 -16.08492187 20.25671875 -16.93359375 20.7109375 C-19.13466578 21.83418559 -19.13466578 21.83418559 -20 24 C-21.84765625 24.6328125 -21.84765625 24.6328125 -24.0625 25.125 C-24.79597656 25.29257813 -25.52945313 25.46015625 -26.28515625 25.6328125 C-26.85105469 25.75398438 -27.41695312 25.87515625 -28 26 C-26.57155552 20.86506887 -23.56937935 18.56298707 -19.5625 15.375 C-14.62738514 11.36026162 -14.62738514 11.36026162 -10 7 C-9.401875 6.71125 -8.80375 6.4225 -8.1875 6.125 C-5.05628972 4.51466329 -2.66308136 2.2999339 0 0 Z " fill="#E0D79B" transform="translate(228,110)"/>
<path d="M0 0 C11.39552918 2.27910584 19.51090574 16.23869923 26 25 C21.25 26.125 21.25 26.125 19 25 C19.33 25.99 19.66 26.98 20 28 C16.2047869 26.50902342 14.38957269 24.24299151 12 21 C13.32 21.33 14.64 21.66 16 22 C16 22.66 16 23.32 16 24 C16.66 24 17.32 24 18 24 C16.12466943 18.37400828 12.85134055 13.85134055 8.6875 9.6875 C8.130625 9.130625 7.57375 8.57375 7 8 C7 7.34 7 6.68 7 6 C6.401875 5.7525 5.80375 5.505 5.1875 5.25 C2.71352479 3.83629988 1.56629745 2.34944617 0 0 Z " fill="#907D50" transform="translate(184,196)"/>
<path d="M0 0 C3.94120709 0.56302958 6.7508723 1.6791945 10 4 C10 4.66 10 5.32 10 6 C10.66 6 11.32 6 12 6 C13.7265625 7.828125 13.7265625 7.828125 15.625 10.25 C16.57246094 11.43335938 16.57246094 11.43335938 17.5390625 12.640625 C19 15 19 15 19 19 C18.34 19 17.68 19 17 19 C16.67 18.34 16.34 17.68 16 17 C13.97536745 16.34786708 13.97536745 16.34786708 12 16 C12 15.34 12 14.68 12 14 C11.1028125 13.566875 11.1028125 13.566875 10.1875 13.125 C8 12 8 12 5 10 C5 9.34 5 8.68 5 8 C4.360625 7.38125 3.72125 6.7625 3.0625 6.125 C0.96582769 3.96479217 0.41603326 2.91223279 0 0 Z " fill="#CCB26B" transform="translate(183,201)"/>
<path d="M0 0 C1.875 1.1875 1.875 1.1875 2.875 3.1875 C4.85022846 4.23558041 6.84981509 5.2395411 8.875 6.1875 C7.885 5.1975 6.895 4.2075 5.875 3.1875 C6.205 2.5275 6.535 1.8675 6.875 1.1875 C8.855 3.4975 10.835 5.8075 12.875 8.1875 C12.545 8.8475 12.215 9.5075 11.875 10.1875 C11.75861269 11.66486982 11.75861269 11.66486982 14.375 13.75 C15.6125 14.9565625 15.6125 14.9565625 16.875 16.1875 C15.885 16.1875 14.895 16.1875 13.875 16.1875 C13.215 15.5275 12.555 14.8675 11.875 14.1875 C11.11574219 14.24421875 10.35648438 14.3009375 9.57421875 14.359375 C5.64894006 14.10942961 4.3578434 12.23307887 1.6875 9.4375 C0.82769531 8.55578125 -0.03210938 7.6740625 -0.91796875 6.765625 C-2.78331425 4.58663733 -4.02835286 2.80965071 -5.125 0.1875 C-2.125 -0.8125 -2.125 -0.8125 0 0 Z " fill="#D9C06D" transform="translate(175.125,187.8125)"/>
<path d="M0 0 C0.33 0.99 0.66 1.98 1 3 C0.236875 3.391875 -0.52625 3.78375 -1.3125 4.1875 C-4.11657383 5.7983468 -4.11657383 5.7983468 -5.4375 8.4375 C-7.4223127 11.69259283 -9.83483614 12.91099185 -13 15 C-14.81569051 16.91498608 -16.38293357 18.90732579 -18 21 C-18.99 20.67 -19.98 20.34 -21 20 C-20.34 19.01 -19.68 18.02 -19 17 C-22.36591866 18.44253657 -24.51047079 20.33264727 -27 23 C-26.67 21.68 -26.34 20.36 -26 19 C-26.66 19 -27.32 19 -28 19 C-28 18.01 -28 17.02 -28 16 C-27.21625 15.71125 -26.4325 15.4225 -25.625 15.125 C-22.90328368 14.15087746 -22.90328368 14.15087746 -21 12 C-20.401875 12.185625 -19.80375 12.37125 -19.1875 12.5625 C-16.90626914 13.23547959 -16.90626914 13.23547959 -14.5625 11.9375 C-11.5236966 9.63986816 -9.42690982 6.92473747 -7 4 C-4.875 2.75 -4.875 2.75 -3 2 C-2.01 1.34 -1.02 0.68 0 0 Z M-19 14 C-19.33 14.66 -19.66 15.32 -20 16 C-19.34 16 -18.68 16 -18 16 C-18.33 15.34 -18.66 14.68 -19 14 Z " fill="#A89958" transform="translate(141,205)"/>
<path d="M0 0 C0.33 0.99 0.66 1.98 1 3 C0.67 3.66 0.34 4.32 0 5 C0.66 5 1.32 5 2 5 C2 4.01 2 3.02 2 2 C2.99 2.33 3.98 2.66 5 3 C1.01667474 8.00469071 -3.05178296 11.77661576 -8.2421875 15.51953125 C-8.82226562 16.00808594 -9.40234375 16.49664062 -10 17 C-10 17.66 -10 18.32 -10 19 C-11.32 19 -12.64 19 -14 19 C-14.33 19.99 -14.66 20.98 -15 22 C-15.66 20.68 -16.32 19.36 -17 18 C-15.47005208 16.76302083 -13.94010417 15.52604167 -12.41015625 14.2890625 C-10.86733563 13.0333609 -10.86733563 13.0333609 -10 11 C-9.34 11 -8.68 11 -8 11 C-7.938125 10.443125 -7.87625 9.88625 -7.8125 9.3125 C-6.66125177 6.03587043 -4.51840336 4.33412994 -2 2 C-1.34 1.34 -0.68 0.68 0 0 Z " fill="#867239" transform="translate(93,254)"/>
<path d="M0 0 C0.33 0 0.66 0 1 0 C1.87922741 19.05268508 2.13222843 38.0632077 2.06866455 57.13122559 C2.0581683 60.63239906 2.05381254 64.13358073 2.04882812 67.63476562 C2.0383149 74.42319581 2.02140473 81.21159559 2 88 C1.67 88 1.34 88 1 88 C0.9845388 86.88579681 0.9845388 86.88579681 0.96876526 85.74908447 C0.8707459 78.74536904 0.76822517 71.74173731 0.66066074 64.73816299 C0.60552067 61.13764699 0.55211515 57.53712273 0.50268555 53.93652344 C0.45491019 50.46108835 0.40256304 46.98574933 0.34705925 43.51042938 C0.31679173 41.54071081 0.29124654 39.57092152 0.26576233 37.60113525 C0.24581711 36.40019226 0.22587189 35.19924927 0.20532227 33.96191406 C0.18977798 32.90490295 0.1742337 31.84789185 0.15821838 30.7588501 C0.01936544 28.33767478 -0.36677436 26.32467544 -1 24 C-1.01537776 22.11942131 -0.96883398 20.23786527 -0.87890625 18.359375 C-0.80639648 16.75449219 -0.80639648 16.75449219 -0.73242188 15.1171875 C-0.67634766 14.00601563 -0.62027344 12.89484375 -0.5625 11.75 C-0.51029297 10.62335938 -0.45808594 9.49671875 -0.40429688 8.3359375 C-0.27477014 5.55700028 -0.13980947 2.77843576 0 0 Z " fill="#918457" transform="translate(138,93)"/>
<path d="M0 0 C5.84945197 1.0236541 8.6480814 4.40771525 12.4609375 8.61328125 C14.22198552 11.34424658 14.32702885 12.81428789 14 16 C9.58708241 14.60479692 7.25466738 12.55330981 4.1875 9.125 C3.39730469 8.26132813 2.60710937 7.39765625 1.79296875 6.5078125 C0 4 0 4 0 0 Z " fill="#B2A16A" transform="translate(203,221)"/>
<path d="M0 0 C1 3 1 3 0.0625 5.1875 C-0.288125 5.785625 -0.63875 6.38375 -1 7 C-0.01 7.99 0.98 8.98 2 10 C-0.64 11.98 -3.28 13.96 -6 16 C-6.99 15.34 -7.98 14.68 -9 14 C-9 14.99 -9 15.98 -9 17 C-9.66 17 -10.32 17 -11 17 C-9.75496833 11.34076516 -8.0646279 8.1662436 -4 4 C-3.34 4 -2.68 4 -2 4 C-1.34 2.68 -0.68 1.36 0 0 Z " fill="#9D874A" transform="translate(104,242)"/>
<path d="M0 0 C2.1875 0.875 2.1875 0.875 3.1875 2.875 C2.63578125 2.92527344 2.0840625 2.97554688 1.515625 3.02734375 C-1.87962546 4.26353394 -3.76862752 6.7668723 -6.0625 9.4375 C-6.52140625 9.95763672 -6.9803125 10.47777344 -7.453125 11.01367188 C-8.5807143 12.29395555 -9.69767315 13.58358798 -10.8125 14.875 C-11.1425 14.215 -11.4725 13.555 -11.8125 12.875 C-12.8025 12.545 -13.7925 12.215 -14.8125 11.875 C-13.5385411 9.83666576 -12.20188077 7.83647874 -10.8125 5.875 C-10.1525 5.875 -9.4925 5.875 -8.8125 5.875 C-8.8125 5.215 -8.8125 4.555 -8.8125 3.875 C-3.8420003 -0.17075557 -3.8420003 -0.17075557 0 0 Z " fill="#AC934E" transform="translate(271.8125,80.125)"/>
<path d="M0 0 C1.65619277 2.90755323 2.24715763 4.97183423 2.22705078 8.30957031 C2.22689972 9.15013977 2.22674866 9.99070923 2.22659302 10.85675049 C2.21627045 11.75480408 2.20594788 12.65285767 2.1953125 13.578125 C2.1924826 14.5046991 2.18965271 15.43127319 2.18673706 16.38592529 C2.17555611 19.34074909 2.15045527 22.29526805 2.125 25.25 C2.11496751 27.25520395 2.10584213 29.26041266 2.09765625 31.265625 C2.07562358 36.17720051 2.04110795 41.08854859 2 46 C-0.20651109 42.00871322 -0.3611818 38.428527 -0.44921875 33.9453125 C-0.48182549 32.77656082 -0.48182549 32.77656082 -0.51509094 31.584198 C-0.55892673 29.93857026 -0.59814486 28.2928139 -0.63305664 26.64697266 C-0.68716517 24.14051051 -0.75744441 21.63489268 -0.83007812 19.12890625 C-0.87075564 17.52606584 -0.91049968 15.92320141 -0.94921875 14.3203125 C-0.96997971 13.57637238 -0.99074066 12.83243225 -1.01213074 12.06594849 C-1.09211549 7.91813814 -0.825085 4.06657616 0 0 Z " fill="#EFE2A0" transform="translate(137,117)"/>
<path d="M0 0 C3.24605542 0.34779165 3.97459015 0.96935871 6.125 3.5625 C6.74375 4.366875 7.3625 5.17125 8 6 C8.66 6 9.32 6 10 6 C10 4.35 10 2.7 10 1 C10.66 1.33 11.32 1.66 12 2 C11.979375 3.0725 11.95875 4.145 11.9375 5.25 C11.95555944 10.75475146 11.95555944 10.75475146 15 15 C14.34 15.66 13.68 16.32 13 17 C10.525 16.01 10.525 16.01 8 15 C8.33 14.01 8.66 13.02 9 12 C8.34 11.67 7.68 11.34 7 11 C6.690625 10.360625 6.38125 9.72125 6.0625 9.0625 C5.04654078 6.68028507 5.04654078 6.68028507 2 5 C2 4.01 2 3.02 2 2 C1.34 2 0.68 2 0 2 C0 1.34 0 0.68 0 0 Z " fill="#A89B57" transform="translate(236,252)"/>
<path d="M0 0 C3.98651199 7.24378397 3.13533976 15.95480331 3 24 C2.34 24 1.68 24 1 24 C1 28.29 1 32.58 1 37 C0.67 37 0.34 37 0 37 C0 29.41 0 21.82 0 14 C-0.66 13.67 -1.32 13.34 -2 13 C-1.34 13 -0.68 13 0 13 C-0.185625 11.783125 -0.37125 10.56625 -0.5625 9.3125 C-0.98993182 5.97022061 -0.92258883 3.28031583 0 0 Z " fill="#8F8559" transform="translate(109,112)"/>
<path d="M0 0 C0.33 0 0.66 0 1 0 C0.99887207 0.81154541 0.99774414 1.62309082 0.99658203 2.45922852 C1.00873941 6.1611497 1.06644987 9.86103375 1.125 13.5625 C1.12242187 14.83931641 1.11984375 16.11613281 1.1171875 17.43164062 C1.14311184 25.50602181 1.14311184 25.50602181 5.1171875 32.21484375 C5.67776855 32.69945068 6.23834961 33.18405762 6.81591797 33.68334961 C7.40203857 34.33509155 7.40203857 34.33509155 8 35 C7.67 35.99 7.34 36.98 7 38 C6.34 38 5.68 38 5 38 C2 33.61538462 2 33.61538462 2 31 C1.34 31 0.68 31 0 31 C0 20.77 0 10.54 0 0 Z " fill="#E8D790" transform="translate(147,132)"/>
<path d="M0 0 C6.24194899 1.2483898 10.13396746 5.16745933 14 10 C15.42212196 12.96575433 16 14.69225201 16 18 C11.125 13.25 11.125 13.25 10 11 C9.484375 10.505 8.96875 10.01 8.4375 9.5 C7 8 7 8 7 6 C6.401875 5.7525 5.80375 5.505 5.1875 5.25 C2.71352479 3.83629988 1.56629745 2.34944617 0 0 Z " fill="#8A7849" transform="translate(184,196)"/>
<path d="M0 0 C0.66 0 1.32 0 2 0 C2 1.98 2 3.96 2 6 C2.99 6.33 3.98 6.66 5 7 C4.67 7.66 4.34 8.32 4 9 C4.99 9.33 5.98 9.66 7 10 C6.34 10 5.68 10 5 10 C4.9175 10.61875 4.835 11.2375 4.75 11.875 C4 14 4 14 1.9375 15.25 C1.298125 15.4975 0.65875 15.745 0 16 C-0.33 15.34 -0.66 14.68 -1 14 C-0.01 14 0.98 14 2 14 C1.67 13.67 1.34 13.34 1 13 C-0.94074991 9.84453612 -1.16034659 7.8903568 -0.625 4.25 C-0.51414062 3.45078125 -0.40328125 2.6515625 -0.2890625 1.828125 C-0.19367188 1.22484375 -0.09828125 0.6215625 0 0 Z " fill="#9A894D" transform="translate(109,222)"/>
<path d="M0 0 C1.4540625 0.0309375 1.4540625 0.0309375 2.9375 0.0625 C2.6075 0.7225 2.2775 1.3825 1.9375 2.0625 C2.5975 2.3925 3.2575 2.7225 3.9375 3.0625 C3.9375 4.7125 3.9375 6.3625 3.9375 8.0625 C3.2775 8.0625 2.6175 8.0625 1.9375 8.0625 C1.9375 7.0725 1.9375 6.0825 1.9375 5.0625 C1.2775 4.7325 0.6175 4.4025 -0.0625 4.0625 C-0.0625 6.0425 -0.0625 8.0225 -0.0625 10.0625 C-0.3925 9.0725 -0.7225 8.0825 -1.0625 7.0625 C-2.2071875 7.5575 -2.2071875 7.5575 -3.375 8.0625 C-6.0625 9.0625 -6.0625 9.0625 -9.0625 9.0625 C-8.4025 7.7425 -7.7425 6.4225 -7.0625 5.0625 C-6.7325 5.7225 -6.4025 6.3825 -6.0625 7.0625 C-5.0725 6.4025 -4.0825 5.7425 -3.0625 5.0625 C-3.3409375 4.1034375 -3.3409375 4.1034375 -3.625 3.125 C-3.769375 2.444375 -3.91375 1.76375 -4.0625 1.0625 C-3.0625 0.0625 -3.0625 0.0625 0 0 Z " fill="#B8A774" transform="translate(247.0625,108.9375)"/>
<path d="M0 0 C0.99 0 1.98 0 3 0 C3.86100541 6.96752071 4.63623697 14.08512027 3 21 C2.34 21.33 1.68 21.66 1 22 C0.80355616 20.10507254 0.61822712 18.20899097 0.4375 16.3125 C0.33308594 15.25675781 0.22867188 14.20101562 0.12109375 13.11328125 C0.00722448 10.18573914 0.29151585 7.82868856 1 5 C0.34 4.67 -0.32 4.34 -1 4 C-0.34 4 0.32 4 1 4 C0.67 2.68 0.34 1.36 0 0 Z " fill="#988753" transform="translate(108,88)"/>
<path d="M0 0 C0.66 0.33 1.32 0.66 2 1 C2 5 2 5 -0.625 8.015625 C-1.74000572 9.10408297 -2.86547085 10.18190725 -4 11.25 C-4.57234375 11.80429688 -5.1446875 12.35859375 -5.734375 12.9296875 C-7.14743057 14.29564122 -8.57258758 15.64905611 -10 17 C-10.33 15.68 -10.66 14.36 -11 13 C-10.01 13 -9.02 13 -8 13 C-7.67 11.68 -7.34 10.36 -7 9 C-5.68 8.67 -4.36 8.34 -3 8 C-2.87625 7.4225 -2.7525 6.845 -2.625 6.25 C-1.99351176 3.97664233 -1.11141809 2.0746471 0 0 Z " fill="#BEAD70" transform="translate(146,207)"/>
<path d="M0 0 C2.475 0.99 2.475 0.99 5 2 C4.67 3.65 4.34 5.3 4 7 C3.34 6.67 2.68 6.34 2 6 C0.35 7.65 -1.3 9.3 -3 11 C-3.33 10.34 -3.66 9.68 -4 9 C-4.99 9.33 -5.98 9.66 -7 10 C-7 9.34 -7 8.68 -7 8 C-5.24761272 6.64547616 -3.40217483 5.50058288 -1.53125 4.31640625 C-0.77328125 3.66478516 -0.77328125 3.66478516 0 3 C0 2.01 0 1.02 0 0 Z " fill="#A39058" transform="translate(162,189)"/>
<path d="M0 0 C6.44172824 2.86299033 9.8980997 6.7961994 13 13 C11.66666667 12.33333333 10.33333333 11.66666667 9 11 C8.29875 10.690625 7.5975 10.38125 6.875 10.0625 C5 9 5 9 3 6 C0.94996045 4.80767387 0.94996045 4.80767387 -1 4 C-0.67 2.68 -0.34 1.36 0 0 Z " fill="#A99151" transform="translate(172,182)"/>
<path d="M0 0 C5.81169605 1.93723202 8.99983489 5.77749037 12 11 C12 11.99 12 12.98 12 14 C11.34 14 10.68 14 10 14 C8.12996901 11.76948111 6.46143418 9.42301608 4.75390625 7.06640625 C3.08749655 4.74102935 3.08749655 4.74102935 0 4 C-0.33 4.66 -0.66 5.32 -1 6 C-1.33 4.68 -1.66 3.36 -2 2 C-1.34 2 -0.68 2 0 2 C0 1.34 0 0.68 0 0 Z " fill="#B7A467" transform="translate(158,174)"/>
<path d="M0 0 C0.66 0.33 1.32 0.66 2 1 C-2.21978022 8.43485086 -2.21978022 8.43485086 -5.96875 9.625 C-7.96751703 10.13172967 -9.98328872 10.57020907 -12 11 C-10.65758968 6.53038381 -9.01786257 4.92592711 -5 2.625 C-4.113125 2.10164063 -3.22625 1.57828125 -2.3125 1.0390625 C-1.549375 0.69617188 -0.78625 0.35328125 0 0 Z " fill="#F6F2B7" transform="translate(212,125)"/>
<path d="M0 0 C11.55 0 23.1 0 35 0 C34.67 0.99 34.34 1.98 34 3 C31.69 3 29.38 3 27 3 C27 2.34 27 1.68 27 1 C18.09 1 9.18 1 0 1 C0 0.67 0 0.34 0 0 Z " fill="#C1B077" transform="translate(122,80)"/>
<path d="M0 0 C0.33 0.99 0.66 1.98 1 3 C-0.1446875 3.5878125 -0.1446875 3.5878125 -1.3125 4.1875 C-4.13735672 5.81045017 -4.13735672 5.81045017 -5.5 8.5625 C-7.3136133 11.50962161 -8.74643472 12.03272384 -12 13 C-11.4237038 9.11000068 -9.63263979 6.85829463 -7 4 C-4.9375 2.8125 -4.9375 2.8125 -3 2 C-2.01 1.34 -1.02 0.68 0 0 Z " fill="#CCBC7D" transform="translate(141,205)"/>
<path d="M0 0 C0.99 0 1.98 0 3 0 C2.51286902 4.41510774 1.14946803 6.30446645 -2.0625 9.3125 C-2.79597656 10.00988281 -3.52945313 10.70726563 -4.28515625 11.42578125 C-4.85105469 11.94527344 -5.41695312 12.46476562 -6 13 C-6.33 11.68 -6.66 10.36 -7 9 C-6.01 8.67 -5.02 8.34 -4 8 C-3.28293018 6.01751285 -2.61709587 4.01584651 -2 2 C-1.34 1.34 -0.68 0.68 0 0 Z " fill="#C3AE6F" transform="translate(255,94)"/>
<path d="M0 0 C7.26 0 14.52 0 22 0 C22 0.66 22 1.32 22 2 C20.0085944 2.38133299 18.00720923 2.71325582 16 3 C15.67 2.67 15.34 2.34 15 2 C12.30345146 1.92680379 9.63308542 1.90757463 6.9375 1.9375 C5.79958008 1.94426758 5.79958008 1.94426758 4.63867188 1.95117188 C2.75908129 1.9629932 0.87953101 1.98092922 -1 2 C-0.67 1.34 -0.34 0.68 0 0 Z " fill="#F5E799" transform="translate(127,81)"/>
<path d="M0 0 C2.6875 -0.3125 2.6875 -0.3125 5 0 C0.89962427 5.24972347 -3.52964787 9.20962911 -9 13 C-9.33 11.35 -9.66 9.7 -10 8 C-8.3603125 7.4121875 -8.3603125 7.4121875 -6.6875 6.8125 C-2.98616006 5.2696569 -2.03578637 3.42382254 0 0 Z " fill="#A5935A" transform="translate(116,237)"/>
<path d="M0 0 C5.80205656 5.64524422 5.80205656 5.64524422 8 9 C8 9.66 8 10.32 8 11 C5.03 10.505 5.03 10.505 2 10 C2 9.34 2 8.68 2 8 C0.37446717 6.29319053 -1.29115995 4.62339805 -3 3 C-2.34 3 -1.68 3 -1 3 C-0.67 2.01 -0.34 1.02 0 0 Z " fill="#9E8E5B" transform="translate(217,233)"/>
<path d="M0 0 C0.70189453 0.00451172 1.40378906 0.00902344 2.12695312 0.01367188 C3.85550538 0.02543073 5.58401365 0.04336546 7.3125 0.0625 C3.55778933 3.22742205 1.21817888 3.34551994 -3.6875 3.0625 C-4.0175 4.3825 -4.3475 5.7025 -4.6875 7.0625 C-5.3475 7.0625 -6.0075 7.0625 -6.6875 7.0625 C-6.6875 5.4125 -6.6875 3.7625 -6.6875 2.0625 C-8.0075 1.7325 -9.3275 1.4025 -10.6875 1.0625 C-7.06882441 -0.1437252 -3.76243749 -0.04566918 0 0 Z " fill="#E6CD7A" transform="translate(114.6875,80.9375)"/>
<path d="M0 0 C0.66 0 1.32 0 2 0 C2 4.62 2 9.24 2 14 C-1 14 -1 14 -2.6875 12.5 C-3.120625 12.005 -3.55375 11.51 -4 11 C-3 9 -3 9 -2 8 C-1.34 8 -0.68 8 0 8 C0 5.36 0 2.72 0 0 Z " fill="#CFBE7E" transform="translate(226,189)"/>
<path d="M0 0 C0 0.99 0 1.98 0 3 C-0.33 3.33 -0.66 3.66 -1 4 C-1.15980437 6.44608998 -1.25929447 8.86731058 -1.31640625 11.31640625 C-1.33718735 12.04746078 -1.35796844 12.77851532 -1.37937927 13.53172302 C-1.44495024 15.87521656 -1.50379432 18.21882539 -1.5625 20.5625 C-1.60567808 22.14779855 -1.64929213 23.73308529 -1.69335938 25.31835938 C-1.8006392 29.21212037 -1.9018849 33.10599772 -2 37 C-2.33 37 -2.66 37 -3 37 C-3 26.11 -3 15.22 -3 4 C-3.66 3.67 -4.32 3.34 -5 3 C-3.35 2.01 -1.7 1.02 0 0 Z " fill="#D4BE79" transform="translate(229,120)"/>
<path d="M0 0 C3.36720387 1.39332574 4.9859524 2.9789286 7 6 C6.01 6.495 6.01 6.495 5 7 C4.67 7.99 4.34 8.98 4 10 C1.69 7.36 -0.62 4.72 -3 2 C-2.01 1.34 -1.02 0.68 0 0 Z " fill="#BEA764" transform="translate(173,187)"/>
<path d="M0 0 C0.66 0.33 1.32 0.66 2 1 C1.01 1.99 0.02 2.98 -1 4 C-0.67 2.68 -0.34 1.36 0 0 Z M-7 7 C-6.01 7.33 -5.02 7.66 -4 8 C-7.3 11.3 -10.6 14.6 -14 18 C-14.66 17.67 -15.32 17.34 -16 17 C-13.03 13.7 -10.06 10.4 -7 7 Z " fill="#F7E795" transform="translate(137,210)"/>
<path d="M0 0 C0.66 0.33 1.32 0.66 2 1 C0.6267021 5.11989371 -1.13507868 5.06753934 -5 7 C-8.07631806 9.23959963 -11.04505941 11.60321485 -14 14 C-14.66 13.67 -15.32 13.34 -16 13 C-12.85965665 9.68020846 -9.92477221 7.29742763 -6 5 C-3.94618935 3.38907269 -1.97949211 1.70328391 0 0 Z " fill="#A69768" transform="translate(228,110)"/>
<path d="M0 0 C2 1.375 2 1.375 4 3 C4 3.66 4 4.32 4 5 C4.99 5 5.98 5 7 5 C9.07639763 7.87501211 10.3543999 10.51375944 11 14 C10.67 13.34 10.34 12.68 10 12 C8.6846659 11.29848848 7.34882408 10.63474075 6 10 C5.01 9.34 4.02 8.68 3 8 C3 7.34 3 6.68 3 6 C1.70766393 4.62689293 0.37562854 3.28965176 -1 2 C-0.67 1.34 -0.34 0.68 0 0 Z " fill="#A69565" transform="translate(185,203)"/>
<path d="M0 0 C2.81773754 1.40886877 4.15868171 3.48353166 6 6 C6 6.66 6 7.32 6 8 C6.66 8 7.32 8 8 8 C9.38232443 9.62626404 10.71937515 11.2925002 12 13 C11.67 13.66 11.34 14.32 11 15 C8.0625 13.75 8.0625 13.75 5 12 C4.375 10.125 4.375 10.125 4 8 C3.319375 7.154375 2.63875 6.30875 1.9375 5.4375 C0 3 0 3 0 0 Z " fill="#F0DF8F" transform="translate(149,158)"/>
<path d="M0 0 C5.99984852 2.66659934 10.08853645 6.85921933 14 12 C14 12.66 14 13.32 14 14 C11.13302508 12.71480435 9.02392288 11.42870746 7 9 C7 8.34 7 7.68 7 7 C6.34 7 5.68 7 5 7 C3.7109375 5.46875 3.7109375 5.46875 2.375 3.5 C1.70597656 2.52546875 1.70597656 2.52546875 1.0234375 1.53125 C0.68570313 1.0259375 0.34796875 0.520625 0 0 Z " fill="#C7AB5A" transform="translate(150,159)"/>
<path d="M0 0 C0.66 0.66 1.32 1.32 2 2 C-0.63675566 4.91926519 -2.23460384 6.09111127 -6 7 C-6.33 7.99 -6.66 8.98 -7 10 C-7.66 8.68 -8.32 7.36 -9 6 C-3.375 1.125 -3.375 1.125 0 0 Z " fill="#7B6F3C" transform="translate(85,266)"/>
<path d="M0 0 C0.33 0.66 0.66 1.32 1 2 C1.5775 2.103125 2.155 2.20625 2.75 2.3125 C6.03513837 3.31629228 7.71052302 5.51973328 10 8 C9.01 8 8.02 8 7 8 C6.34 7.34 5.68 6.68 5 6 C4.21625 6.061875 3.4325 6.12375 2.625 6.1875 C0 6 0 6 -2.3125 3.5 C-2.869375 2.675 -3.42625 1.85 -4 1 C-2.68 0.67 -1.36 0.34 0 0 Z " fill="#B9A465" transform="translate(182,196)"/>
<path d="M0 0 C2.875 0.5625 2.875 0.5625 6 2 C7.375 5.625 7.375 5.625 8 9 C2.36734694 6.55102041 2.36734694 6.55102041 0.625 3.9375 C0 2 0 2 0 0 Z " fill="#D8CA8C" transform="translate(203,221)"/>
<path d="M0 0 C0.33 0.99 0.66 1.98 1 3 C0.67 3.66 0.34 4.32 0 5 C0.66 5 1.32 5 2 5 C2 4.01 2 3.02 2 2 C2.99 2.33 3.98 2.66 5 3 C3.25 5.5 3.25 5.5 1 8 C-0.32 8 -1.64 8 -3 8 C-2.25 2.25 -2.25 2.25 0 0 Z " fill="#967F41" transform="translate(93,254)"/>
<path d="M0 0 C0.33 1.32 0.66 2.64 1 4 C-0.32 4.99 -1.64 5.98 -3 7 C-3 6.01 -3 5.02 -3 4 C-4.98 4.33 -6.96 4.66 -9 5 C-9 4.34 -9 3.68 -9 3 C-5.72933122 0.81955415 -4.74581273 0.90142598 -1 1 C-0.67 0.67 -0.34 0.34 0 0 Z " fill="#C1A968" transform="translate(158,197)"/>
<path d="M0 0 C2.3797234 3.56958511 2.29830341 5.32718302 2.3125 9.5625 C2.33763672 11.29693359 2.33763672 11.29693359 2.36328125 13.06640625 C2.24339844 14.03449219 2.12351563 15.00257813 2 16 C1.01 16.66 0.02 17.32 -1 18 C-0.505 9.09 -0.505 9.09 0 0 Z " fill="#B1A06C" transform="translate(139,183)"/>
<path d="M0 0 C0.33 0.99 0.66 1.98 1 3 C-0.32 3.99 -1.64 4.98 -3 6 C-3.99 5.34 -4.98 4.68 -6 4 C-6 4.99 -6 5.98 -6 7 C-6.66 7 -7.32 7 -8 7 C-7.75 4.625 -7.75 4.625 -7 2 C-4.43689172 0.2058242 -3.16880694 0 0 0 Z " fill="#BDA152" transform="translate(101,252)"/>
<path d="M0 0 C0.33 0 0.66 0 1 0 C1 3.3 1 6.6 1 10 C0.34 10 -0.32 10 -1 10 C-1.474375 9.195625 -1.94875 8.39125 -2.4375 7.5625 C-3.79983672 4.7081924 -3.79983672 4.7081924 -7 4 C-6.67 3.01 -6.34 2.02 -6 1 C-3.525 1.99 -3.525 1.99 -1 3 C-0.67 2.01 -0.34 1.02 0 0 Z " fill="#E0CA7F" transform="translate(243,248)"/>
<path d="M0 0 C2.3125 0.8125 2.3125 0.8125 3.3125 2.8125 C2.44625 2.9671875 2.44625 2.9671875 1.5625 3.125 C-1.00799158 3.91042798 -2.62407284 5.11754197 -4.6875 6.8125 C-4.6875 6.1525 -4.6875 5.4925 -4.6875 4.8125 C-5.3475 4.8125 -6.0075 4.8125 -6.6875 4.8125 C-6.6875 2.8125 -6.6875 2.8125 -5 1.125 C-2.6875 -0.1875 -2.6875 -0.1875 0 0 Z " fill="#7E7146" transform="translate(271.6875,80.1875)"/>
<path d="M0 0 C0.66 0.33 1.32 0.66 2 1 C0.02 1.99 0.02 1.99 -2 3 C-2 3.66 -2 4.32 -2 5 C-3.53125 6.2890625 -3.53125 6.2890625 -5.5 7.625 C-6.1496875 8.07101563 -6.799375 8.51703125 -7.46875 8.9765625 C-7.9740625 9.31429687 -8.479375 9.65203125 -9 10 C-9.33 9.01 -9.66 8.02 -10 7 C-7.20283196 3.70921407 -3.80471422 1.93694542 0 0 Z " fill="#B2A35A" transform="translate(132,225)"/>
<path d="M0 0 C0.625 1.875 0.625 1.875 1 4 C-1.26185454 6.26185454 -2.96983561 7.03921617 -6 8 C-6.99 7.67 -7.98 7.34 -9 7 C-6.49706701 4.31828608 -4.34675406 2.50026906 -1 1 C-0.67 0.67 -0.34 0.34 0 0 Z " fill="#A89869" transform="translate(240,101)"/>
<path d="M0 0 C1.32 0.33 2.64 0.66 4 1 C4 1.66 4 2.32 4 3 C4.66 3 5.32 3 6 3 C6 2.34 6 1.68 6 1 C7.32 1.66 8.64 2.32 10 3 C9.67 3.66 9.34 4.32 9 5 C8.34 4.67 7.68 4.34 7 4 C7.33 4.99 7.66 5.98 8 7 C4.2047869 5.50902342 2.38957269 3.24299151 0 0 Z " fill="#B5A168" transform="translate(196,217)"/>
<path d="M0 0 C4.51533049 2.32216997 7.01055501 4.98560245 10 9 C10 9.66 10 10.32 10 11 C9.34 11 8.68 11 8 11 C7.67 10.34 7.34 9.68 7 9 C6.01 8.67 5.02 8.34 4 8 C2.19032651 5.35509259 1.01527629 3.04582887 0 0 Z " fill="#F0E093" transform="translate(192,209)"/>
<path d="M0 0 C3.14027363 0.33645789 4.05098295 1.05236086 6.3125 3.375 C6.869375 4.24125 7.42625 5.1075 8 6 C7.67 6.99 7.34 7.98 7 9 C6.34 9 5.68 9 5 9 C2 4.61538462 2 4.61538462 2 2 C1.34 2 0.68 2 0 2 C0 1.34 0 0.68 0 0 Z " fill="#A6965D" transform="translate(147,161)"/>
<path d="M0 0 C-2.475 3.465 -2.475 3.465 -5 7 C-5.33 6.01 -5.66 5.02 -6 4 C-6.33 3.67 -6.66 3.34 -7 3 C-7 2.01 -7 1.02 -7 0 C-3.98968256 -0.93423645 -3.13349732 -1.04449911 0 0 Z " fill="#BEA864" transform="translate(120,221)"/>
<path d="M0 0 C0.33 0 0.66 0 1 0 C1 2.64 1 5.28 1 8 C2.65 7.01 4.3 6.02 6 5 C5.5359375 5.8971875 5.5359375 5.8971875 5.0625 6.8125 C3.89790296 9.08956772 3.89790296 9.08956772 3 12 C2.01 12 1.02 12 0 12 C0 8.04 0 4.08 0 0 Z " fill="#F7F0AD" transform="translate(126,199)"/>
<path d="M0 0 C2.4375 0.75 2.4375 0.75 5 2 C5.37756808 3.32148827 5.7018576 4.65835921 6 6 C7.54743745 8.12577266 9.25244005 10.0283939 11 12 C7.612801 10.5611898 5.6405896 8.77880501 3.25 6 C2.63640625 5.29875 2.0228125 4.5975 1.390625 3.875 C0 2 0 2 0 0 Z " fill="#AB9E6B" transform="translate(201,174)"/>
<path d="M0 0 C1.5 1.375 1.5 1.375 3 3 C3 3.66 3 4.32 3 5 C3.66 5 4.32 5 5 5 C5 5.66 5 6.32 5 7 C4.38125 6.79375 3.7625 6.5875 3.125 6.375 C2.42375 6.25125 1.7225 6.1275 1 6 C0.34 6.66 -0.32 7.32 -1 8 C-1.625 5.125 -1.625 5.125 -2 2 C-1.34 1.34 -0.68 0.68 0 0 Z " fill="#9C9266" transform="translate(147,112)"/>
<path d="M0 0 C2.31 0.66 4.62 1.32 7 2 C6.34 3.32 5.68 4.64 5 6 C2.03 5.505 2.03 5.505 -1 5 C-1.33 4.01 -1.66 3.02 -2 2 C-1.34 2 -0.68 2 0 2 C0 1.34 0 0.68 0 0 Z " fill="#98824A" transform="translate(92,78)"/>
<path d="M0 0 C0.66 0.33 1.32 0.66 2 1 C2 2.32 2 3.64 2 5 C-0.5 7.25 -0.5 7.25 -3 9 C-2.44271087 5.65626525 -1.64826111 2.96687001 0 0 Z " fill="#C9B875" transform="translate(146,207)"/>
<path d="M0 0 C0.66 0.33 1.32 0.66 2 1 C0.90536178 2.17561146 -0.20107186 3.3402489 -1.3125 4.5 C-1.92738281 5.1496875 -2.54226562 5.799375 -3.17578125 6.46875 C-5 8 -5 8 -8 8 C-6.88333826 4.65001479 -6.25305075 4.20659778 -3.4375 2.3125 C-2.79683594 1.87550781 -2.15617188 1.43851562 -1.49609375 0.98828125 C-1.00238281 0.66214844 -0.50867188 0.33601563 0 0 Z " fill="#F9EFA7" transform="translate(226,114)"/>
<path d="M0 0 C2.74148672 0.37047118 4.58593199 0.68587944 6.8125 2.375 C8 4 8 4 8 7 C6 7 6 7 4 5.0625 C3.34 4.381875 2.68 3.70125 2 3 C1.34 2.67 0.68 2.34 0 2 C0 1.34 0 0.68 0 0 Z " fill="#E7D182" transform="translate(183,201)"/>
<path d="M0 0 C0.33 0 0.66 0 1 0 C1 4.62 1 9.24 1 14 C0.67 14 0.34 14 0 14 C-0.2165625 12.6078125 -0.2165625 12.6078125 -0.4375 11.1875 C-0.92100111 7.99274889 -0.92100111 7.99274889 -2 5 C-1.0625 2.3125 -1.0625 2.3125 0 0 Z " fill="#D6C073" transform="translate(125,183)"/>
<path d="M0 0 C3.23739279 1.6186964 4.42244771 4.84489543 6 8 C3.33333333 6.66666667 0.66666667 5.33333333 -2 4 C-2 3.01 -2 2.02 -2 1 C-1.34 0.67 -0.68 0.34 0 0 Z " fill="#938049" transform="translate(179,187)"/>
<path d="M0 0 C2.66666667 0.66666667 5.33333333 1.33333333 8 2 C8.33 3.65 8.66 5.3 9 7 C5.61672388 5.87224129 3.67715207 4.32489522 1 2 C0.67 1.34 0.34 0.68 0 0 Z " fill="#CCB972" transform="translate(154,170)"/>
<path d="M0 0 C1.65 0 3.3 0 5 0 C5.33 1.98 5.66 3.96 6 6 C3.13275314 5.42655063 2.1385485 5.1385485 0 3 C0 2.01 0 1.02 0 0 Z " fill="#AFA677" transform="translate(181,152)"/>
<path d="M0 0 C0.33 0.66 0.66 1.32 1 2 C2.98 1.67 4.96 1.34 7 1 C4.14693203 3.32472205 1.45925163 4.7508258 -2 6 C-2.33 4.68 -2.66 3.36 -3 2 C-2.01 1.34 -1.02 0.68 0 0 Z " fill="#CDBD7C" transform="translate(142,82)"/>
<path d="M0 0 C1.8125 0.1875 1.8125 0.1875 4 1 C5.8125 3.4375 5.8125 3.4375 7 6 C6.67 6.66 6.34 7.32 6 8 C4 6.6875 4 6.6875 2 5 C2 4.01 2 3.02 2 2 C1.34 2 0.68 2 0 2 C0 1.34 0 0.68 0 0 Z " fill="#8C7652" transform="translate(236,252)"/>
<path d="M0 0 C0.66 0.66 1.32 1.32 2 2 C1.01 2.495 1.01 2.495 0 3 C0.66 3.66 1.32 4.32 2 5 C0.02 5.99 0.02 5.99 -2 7 C-2.66 5.68 -3.32 4.36 -4 3 C-3.34 3 -2.68 3 -2 3 C-2 2.34 -2 1.68 -2 1 C-1.34 0.67 -0.68 0.34 0 0 Z " fill="#847C5D" transform="translate(227,241)"/>
<path d="M0 0 C0.33 0.99 0.66 1.98 1 3 C-1.8125 5.0625 -1.8125 5.0625 -5 7 C-5.99 6.67 -6.98 6.34 -8 6 C-7.67 5.01 -7.34 4.02 -7 3 C-3.4375 1.3125 -3.4375 1.3125 0 0 Z " fill="#A4945F" transform="translate(141,205)"/>
<path d="M0 0 C0.66 0 1.32 0 2 0 C3.625 2 3.625 2 5 4 C2.36 4.66 -0.28 5.32 -3 6 C-1.125 1.125 -1.125 1.125 0 0 Z " fill="#DBD199" transform="translate(203,130)"/>
<path d="M0 0 C0.33 0.66 0.66 1.32 1 2 C1.99 2.33 2.98 2.66 4 3 C3.34 3 2.68 3 2 3 C1.9175 3.61875 1.835 4.2375 1.75 4.875 C1 7 1 7 -1.0625 8.25 C-1.701875 8.4975 -2.34125 8.745 -3 9 C-3.33 8.34 -3.66 7.68 -4 7 C-3.01 7 -2.02 7 -1 7 C-0.67 4.69 -0.34 2.38 0 0 Z " fill="#78703C" transform="translate(112,229)"/>
<path d="M0 0 C0.99 0.33 1.98 0.66 3 1 C2 4 2 4 -1.0625 5.6875 C-2.031875 6.120625 -3.00125 6.55375 -4 7 C-3.43628586 3.73045798 -2.50037734 2.17424117 0 0 Z " fill="#AE9B66" transform="translate(127,211)"/>
<path d="M0 0 C2 2 2 2 2 4 C2.66 4.66 3.32 5.32 4 6 C3.34 6.66 2.68 7.32 2 8 C-0.475 7.01 -0.475 7.01 -3 6 C-2.67 5.34 -2.34 4.68 -2 4 C-1.34 4 -0.68 4 0 4 C0 2.68 0 1.36 0 0 Z " fill="#7A7932" transform="translate(247,261)"/>
<path d="M0 0 C2.475 0.99 2.475 0.99 5 2 C4.67 3.65 4.34 5.3 4 7 C3.67 6.34 3.34 5.68 3 5 C2.34 5 1.68 5 1 5 C0.67 3.35 0.34 1.7 0 0 Z " fill="#A79364" transform="translate(162,189)"/>
<path d="M0 0 C0.94875 0.04125 1.8975 0.0825 2.875 0.125 C1.61077236 2.65345528 0.34654472 2.88922764 -2.125 4.125 C-2.455 4.785 -2.785 5.445 -3.125 6.125 C-3.785 4.805 -4.445 3.485 -5.125 2.125 C-3.125 0.125 -3.125 0.125 0 0 Z " fill="#AD9F6C" transform="translate(238.125,117.875)"/>
<path d="M0 0 C-1.36983503 3.16115776 -1.9890638 3.9927092 -5 6 C-5.33 4.35 -5.66 2.7 -6 1 C-3 0 -3 0 0 0 Z " fill="#B29B5B" transform="translate(112,244)"/>
<path d="M0 0 C3.25543229 0.34879632 4.01873107 1.02133261 6.25 3.5625 C6.8275 4.366875 7.405 5.17125 8 6 C6.68 6 5.36 6 4 6 C1.75 3 1.75 3 0 0 Z " fill="#A89567" transform="translate(209,222)"/>
<path d="M0 0 C2.475 0.495 2.475 0.495 5 1 C5.33 2.65 5.66 4.3 6 6 C3.37812506 4.95125002 2.20628639 4.35068687 0.75 1.875 C0.5025 1.25625 0.255 0.6375 0 0 Z " fill="#C3AB62" transform="translate(165,175)"/>
<path d="M0 0 C0.33 0.99 0.66 1.98 1 3 C-1.33333333 7.66666667 -1.33333333 7.66666667 -4 9 C-2.25 2.25 -2.25 2.25 0 0 Z " fill="#B09853" transform="translate(104,242)"/>
<path d="M0 0 C0.66 0.66 1.32 1.32 2 2 C1.34 3.98 0.68 5.96 0 8 C-0.33 8 -0.66 8 -1 8 C-1.04241723 5.66705225 -1.04092937 3.33297433 -1 1 C-0.67 0.67 -0.34 0.34 0 0 Z " fill="#EAD484" transform="translate(228,123)"/>
<path d="M0 0 C0.66 1.32 1.32 2.64 2 4 C0.68 5.65 -0.64 7.3 -2 9 C-3 6 -3 6 -1.5625 2.8125 C-1.046875 1.884375 -0.53125 0.95625 0 0 Z " fill="#DBC271" transform="translate(124,209)"/>
<path d="M0 0 C3.36720387 1.39332574 4.9859524 2.9789286 7 6 C5.68 6.33 4.36 6.66 3 7 C2.690625 6.21625 2.38125 5.4325 2.0625 4.625 C1.07124962 2.07669872 1.07124962 2.07669872 0 0 Z " fill="#AB985B" transform="translate(198,209)"/>
<path d="M0 0 C3.36591866 1.44253657 5.51047079 3.33264727 8 6 C4.06830895 6 2.83572772 4.60580385 0 2 C0 1.34 0 0.68 0 0 Z " fill="#C5AB61" transform="translate(184,198)"/>
<path d="M0 0 C3 1 3 1 5 4 C4.01 4.495 4.01 4.495 3 5 C2.01 4.67 1.02 4.34 0 4 C-0.33 4.66 -0.66 5.32 -1 6 C-1.33 4.68 -1.66 3.36 -2 2 C-1.34 2 -0.68 2 0 2 C0 1.34 0 0.68 0 0 Z " fill="#8E835A" transform="translate(158,174)"/>
<path d="M0 0 C0.66 0.33 1.32 0.66 2 1 C1.0409375 1.6496875 1.0409375 1.6496875 0.0625 2.3125 C-2.26746003 3.91239177 -2.26746003 3.91239177 -3 7 C-5 6 -5 6 -6 3 C-4.03533587 1.93224776 -2.03144641 0.93446535 0 0 Z " fill="#E5D38E" transform="translate(241,118)"/>
<path d="M0 0 C1.65 0 3.3 0 5 0 C5 0.33 5 0.66 5 1 C3.35 1 1.7 1 0 1 C0 0.67 0 0.34 0 0 Z " fill="#B89E9E" transform="translate(149,78)"/>
<path d="M0 0 C0.99 0 1.98 0 3 0 C2.67 0.66 2.34 1.32 2 2 C1.34 1.34 0.68 0.68 0 0 Z " fill="#919191" transform="translate(233,258)"/>
<path d="M0 0 C0.99 0.495 0.99 0.495 2 1 C1.01 1.495 1.01 1.495 0 2 C0 1.34 0 0.68 0 0 Z " fill="#895E5E" transform="translate(227,250)"/>
<path d="M0 0 C0.66 0.66 1.32 1.32 2 2 C1.34 2 0.68 2 0 2 C0 1.34 0 0.68 0 0 Z " fill="#787867" transform="translate(195,218)"/>
<path d="M0 0 C0.66 0 1.32 0 2 0 C1.67 0.66 1.34 1.32 1 2 C0.67 1.34 0.34 0.68 0 0 Z " fill="#89895E" transform="translate(152,171)"/>
<path d="M0 0 C3 1 3 1 3 1 Z " fill="#8D8D63" transform="translate(145,78)"/>
<path d="M0 0 C2 1 2 1 2 1 Z " fill="#55552A" transform="translate(233,274)"/>
<path d="M0 0 C2 1 2 1 2 1 Z " fill="#7F3F3F" transform="translate(233,266)"/>
<path d="M0 0 C2 1 2 1 2 1 Z " fill="#7F3F3F" transform="translate(230,251)"/>
<path d="M0 0 C2 1 2 1 2 1 Z " fill="#7F7F3F" transform="translate(202,228)"/>
<path d="M0 0 C2 1 2 1 2 1 Z " fill="#7F7F3F" transform="translate(160,203)"/>
<path d="M0 0 C2 1 2 1 2 1 Z " fill="#7F7F3F" transform="translate(160,200)"/>
<path d="M0 0 C2 1 2 1 2 1 Z " fill="#7F7F3F" transform="translate(167,195)"/>
<path d="M0 0 C2 1 2 1 2 1 Z " fill="#7F7F3F" transform="translate(146,171)"/>
<path d="M0 0 C2 1 2 1 2 1 Z " fill="#7F7F3F" transform="translate(249,107)"/>
<path d="M0 0 C2 1 2 1 2 1 Z " fill="#7F7F3F" transform="translate(252,104)"/>
<path d="M0 0 C2 1 2 1 2 1 Z " fill="#7F5555" transform="translate(233,98)"/>
<path d="M0 0 C2 1 2 1 2 1 Z " fill="#7F3F3F" transform="translate(265,91)"/>
<path d="M0 0 C2 1 2 1 2 1 Z " fill="#555555" transform="translate(233,90)"/>
<path d="M0 0 C2 1 2 1 2 1 Z " fill="#7F3F3F" transform="translate(233,82)"/>
<path d="M0 0 C2 1 2 1 2 1 Z " fill="#7F7F3F" transform="translate(142,78)"/>
<path d="M0 0 C2 1 2 1 2 1 Z " fill="#555555" transform="translate(233,74)"/>
<path d="M0 0 C2 1 2 1 2 1 Z " fill="#555555" transform="translate(233,66)"/>
<path d="M0 0 C2 1 2 1 2 1 Z " fill="#3F3F3F" transform="translate(233,58)"/>
<path d="M0 0 C2 1 2 1 2 1 Z " fill="#3F3F3F" transform="translate(233,50)"/>
<path d="M0 0 C2 1 2 1 2 1 Z " fill="#3F3F3F" transform="translate(233,42)"/>
<path d="M0 0 C2 1 2 1 2 1 Z " fill="#3F3F3F" transform="translate(233,34)"/>
<path d="M0 0 C2 1 2 1 2 1 Z " fill="#55552A" transform="translate(233,26)"/>
<path d="M0 0 C2 1 2 1 2 1 Z " fill="#55552A" transform="translate(233,18)"/>
<path d="M0 0 C2 1 2 1 2 1 Z " fill="#3F3F3F" transform="translate(233,10)"/>
<path d="M0 0 C2 1 2 1 2 1 Z " fill="#3F3F3F" transform="translate(233,2)"/>
<path d="" fill="#9D9D00" transform="translate(0,0)"/>
<path d="" fill="#9D9D00" transform="translate(0,0)"/>
<path d="" fill="#9D9D00" transform="translate(0,0)"/>
<path d="" fill="#9D9D9D" transform="translate(0,0)"/>
<path d="" fill="#9D9D9D" transform="translate(0,0)"/>
<path d="" fill="#9D9D9D" transform="translate(0,0)"/>
<path d="" fill="#9D9D00" transform="translate(0,0)"/>
<path d="" fill="#9D9D00" transform="translate(0,0)"/>
<path d="" fill="#9D9D00" transform="translate(0,0)"/>
<path d="" fill="#9D9D9D" transform="translate(0,0)"/>
<path d="" fill="#9D9D00" transform="translate(0,0)"/>
<path d="" fill="#9D9D9D" transform="translate(0,0)"/>
<path d="" fill="#9D9D9D" transform="translate(0,0)"/>
<path d="" fill="#9D9D9D" transform="translate(0,0)"/>
<path d="" fill="#9D9D9D" transform="translate(0,0)"/>
<path d="" fill="#9D9D9D" transform="translate(0,0)"/>
<path d="" fill="#9D9D00" transform="translate(0,0)"/>
<path d="" fill="#9D9D9D" transform="translate(0,0)"/>
<path d="" fill="#9D9D9D" transform="translate(0,0)"/>
<path d="" fill="#9D9D9D" transform="translate(0,0)"/>
<path d="" fill="#9D9D9D" transform="translate(0,0)"/>
<path d="" fill="#9D9D9D" transform="translate(0,0)"/>
<path d="" fill="#9D9D9D" transform="translate(0,0)"/>
<path d="" fill="#9D9D9D" transform="translate(0,0)"/>
<path d="" fill="#9D9D00" transform="translate(0,0)"/>
<path d="" fill="#9D9D9D" transform="translate(0,0)"/>
<path d="" fill="#9D9D9D" transform="translate(0,0)"/>
<path d="" fill="#9D9D9D" transform="translate(0,0)"/>
<path d="" fill="#9D9D9D" transform="translate(0,0)"/>
<path d="" fill="#9D9D9D" transform="translate(0,0)"/>
<path d="" fill="#9D9D9D" transform="translate(0,0)"/>
<path d="" fill="#9D9D9D" transform="translate(0,0)"/>
<path d="" fill="#9D9D9D" transform="translate(0,0)"/>
<path d="" fill="#9D9D9D" transform="translate(0,0)"/>
<path d="" fill="#9D9D9D" transform="translate(0,0)"/>
<path d="" fill="#9D9D9D" transform="translate(0,0)"/>
<path d="" fill="#9D9D9D" transform="translate(0,0)"/>
<path d="" fill="#9D9D9D" transform="translate(0,0)"/>
<path d="" fill="#9D9D9D" transform="translate(0,0)"/>
<path d="" fill="#9D9D9D" transform="translate(0,0)"/>
<path d="" fill="#9D9D9D" transform="translate(0,0)"/>
<path d="" fill="#9D9D9D" transform="translate(0,0)"/>
<path d="" fill="#9D9D9D" transform="translate(0,0)"/>
<path d="" fill="#9D9D9D" transform="translate(0,0)"/>
<path d="" fill="#9D9D9D" transform="translate(0,0)"/>
<path d="" fill="#9D9D9D" transform="translate(0,0)"/>
<path d="" fill="#9D9D9D" transform="translate(0,0)"/>
<path d="" fill="#9D9D9D" transform="translate(0,0)"/>
<path d="" fill="#9D9D00" transform="translate(0,0)"/>
<path d="" fill="#9D9D9D" transform="translate(0,0)"/>
<path d="" fill="#9D9D9D" transform="translate(0,0)"/>
<path d="" fill="#9D9D00" transform="translate(0,0)"/>
<path d="" fill="#9D9D00" transform="translate(0,0)"/>
<path d="" fill="#9D9D9D" transform="translate(0,0)"/>
<path d="" fill="#9D9D9D" transform="translate(0,0)"/>
<path d="" fill="#9D9D9D" transform="translate(0,0)"/>
<path d="" fill="#9D9D9D" transform="translate(0,0)"/>
<path d="" fill="#9D9D00" transform="translate(0,0)"/>
<path d="" fill="#9D9D00" transform="translate(0,0)"/>
<path d="" fill="#9D9D00" transform="translate(0,0)"/>
<path d="" fill="#9D9D00" transform="translate(0,0)"/>
<path d="" fill="#9D9D00" transform="translate(0,0)"/>
<path d="" fill="#9D9D00" transform="translate(0,0)"/>
<path d="" fill="#9D9D00" transform="translate(0,0)"/>
<path d="" fill="#9D9D00" transform="translate(0,0)"/>
<path d="" fill="#9D0000" transform="translate(0,0)"/>
<path d="" fill="#9D9D00" transform="translate(0,0)"/>
<path d="" fill="#9D9D00" transform="translate(0,0)"/>
</svg>
